<?xml version="1.0" encoding="UTF-8"?>
<svg id="Layer_2" data-name="Layer 2" xmlns="http://www.w3.org/2000/svg" viewBox="0 0 114.02 113.51">
  <defs>
    <style>
      .cls-1 {
        fill: #fa0a9c;
      }

      .cls-2 {
        fill: #2a90e3;
      }

      .cls-3 {
        fill: #6c2cf8;
      }

      .cls-4 {
        fill: #21a7e0;
      }

      .cls-5 {
        fill: #7326f9;
      }

      .cls-6 {
        fill: #fcfcfd;
      }

      .cls-7 {
        fill: #a46ffc;
      }

      .cls-8 {
        fill: #90ced1;
      }

      .cls-9 {
        fill: #1fb1e1;
      }

      .cls-10 {
        fill: #d7c1fe;
      }

      .cls-11 {
        fill: #fa0a9b;
      }

      .cls-12 {
        fill: #f8099a;
      }

      .cls-13 {
        fill: #474cea;
      }

      .cls-14 {
        fill: #dbc9fd;
      }

      .cls-15 {
        fill: #5920ee;
      }

      .cls-16 {
        fill: #551eef;
      }

      .cls-17 {
        fill: #a8eaeb;
      }

      .cls-18 {
        fill: #542ded;
      }

      .cls-19 {
        fill: #9a60fc;
      }

      .cls-20 {
        fill: #5132ec;
      }

      .cls-21 {
        fill: #0fd3dc;
      }

      .cls-22 {
        fill: #361399;
      }

      .cls-23 {
        fill: #251365;
      }

      .cls-24 {
        fill: #6607fb;
      }

      .cls-25 {
        fill: #f17bcd;
      }

      .cls-26 {
        fill: #4453e9;
      }

      .cls-27 {
        fill: #5529ed;
      }

      .cls-28 {
        fill: #6d18fa;
      }

      .cls-29 {
        fill: #5920ed;
      }

      .cls-30 {
        fill: #1e146a;
      }

      .cls-31 {
        fill: #289ce5;
      }

      .cls-32 {
        fill: #6a10fb;
      }

      .cls-33 {
        fill: #481cc7;
      }

      .cls-34 {
        fill: #f07dce;
      }

      .cls-35 {
        fill: #3a179d;
      }

      .cls-36 {
        fill: #a6a3c2;
      }

      .cls-37 {
        fill: #d9c3fe;
      }

      .cls-38 {
        fill: #1c1467;
      }

      .cls-39 {
        fill: #90c8d4;
      }

      .cls-40 {
        fill: #8fc8d3;
      }

      .cls-41 {
        fill: #6f22f9;
      }

      .cls-42 {
        fill: #90c5d5;
      }

      .cls-43 {
        fill: #f646b6;
      }

      .cls-44 {
        fill: #5823ed;
      }

      .cls-45 {
        fill: #591df2;
      }

      .cls-46 {
        fill: #3d63e7;
      }

      .cls-47 {
        fill: #0bdbda;
      }

      .cls-48 {
        fill: #5628ed;
      }

      .cls-49 {
        fill: #a471fc;
      }

      .cls-50 {
        fill: #7021f9;
      }

      .cls-51 {
        fill: #5a1fef;
      }

      .cls-52 {
        fill: #6810fa;
      }

      .cls-53 {
        fill: #542cec;
      }

      .cls-54 {
        fill: #6a13fa;
      }

      .cls-55 {
        fill: #6f1dfa;
      }

      .cls-56 {
        fill: #504bfb;
      }

      .cls-57 {
        fill: #782afb;
      }

      .cls-58 {
        fill: #d6bffd;
      }

      .cls-59 {
        fill: #6809fd;
      }

      .cls-60 {
        fill: #762afa;
      }

      .cls-61 {
        fill: #6606fb;
      }

      .cls-62 {
        fill: #f17ccd;
      }

      .cls-63 {
        fill: #7026f8;
      }

      .cls-64 {
        fill: #5822ed;
      }

      .cls-65 {
        fill: #f07acd;
      }

      .cls-66 {
        fill: #d7c1fd;
      }

      .cls-67 {
        fill: #d6c0fe;
      }

      .cls-68 {
        fill: #f279cc;
      }

      .cls-69 {
        fill: #6f20f9;
      }

      .cls-70 {
        fill: #7224f9;
      }

      .cls-71 {
        fill: #fcfbfd;
      }

      .cls-72 {
        fill: #0bdbdb;
      }

      .cls-73 {
        fill: #5821ed;
      }

      .cls-74 {
        fill: #6f07fc;
      }

      .cls-75 {
        fill: #acf6eb;
      }

      .cls-76 {
        fill: #1c1465;
      }

      .cls-77 {
        fill: #936cf8;
      }

      .cls-78 {
        fill: #91cbd5;
      }

      .cls-79 {
        fill: #3385e8;
      }

      .cls-80 {
        fill: #7123f9;
      }

      .cls-81 {
        fill: #d2bafc;
      }

      .cls-82 {
        fill: #f7099b;
      }

      .cls-83 {
        fill: #6b13f9;
      }

      .cls-84 {
        fill: #10cedc;
      }

      .cls-85 {
        fill: #5821ee;
      }

      .cls-86 {
        fill: #5a1dee;
      }

      .cls-87 {
        fill: #381ca7;
      }

      .cls-88 {
        fill: #a02ee3;
      }

      .cls-89 {
        fill: #d5befd;
      }

      .cls-90 {
        fill: #1b1464;
      }

      .cls-91 {
        fill: #6e20f9;
      }

      .cls-92 {
        fill: #d9c3fd;
      }

      .cls-93 {
        fill: #02fcf9;
      }

      .cls-94 {
        fill: #59548e;
      }

      .cls-95 {
        fill: #1d1468;
      }

      .cls-96 {
        fill: #02fbf8;
      }

      .cls-97 {
        fill: #a7e9ea;
      }

      .cls-98 {
        fill: #0dd8db;
      }

      .cls-99 {
        fill: #1c1466;
      }

      .cls-100 {
        fill: #a069fc;
      }

      .cls-101 {
        fill: #6b24f8;
      }

      .cls-102 {
        fill: #90c6d5;
      }

      .cls-103 {
        fill: #3575e5;
      }

      .cls-104 {
        fill: #6e08fc;
      }

      .cls-105 {
        fill: #0af8f8;
      }

      .cls-106 {
        fill: #3e1bb2;
      }

      .cls-107 {
        fill: #e0cdfe;
      }

      .cls-108 {
        fill: #327de4;
      }

      .cls-109 {
        fill: #363076;
      }

      .cls-110 {
        fill: #6913fa;
      }

      .cls-111 {
        fill: #7022f9;
      }

      .cls-112 {
        fill: #5921ee;
      }

      .cls-113 {
        fill: #573af4;
      }

      .cls-114 {
        fill: #03f9f8;
      }

      .cls-115 {
        fill: #f90999;
      }

      .cls-116 {
        fill: #b489fd;
      }

      .cls-117 {
        fill: #4b61ef;
      }

      .cls-118 {
        fill: #4d4ef1;
      }

      .cls-119 {
        fill: #396ce6;
      }

      .cls-120 {
        fill: #8fcfd0;
      }

      .cls-121 {
        fill: #4b42ea;
      }

      .cls-122 {
        fill: #1e146b;
      }

      .cls-123 {
        fill: #5e1074;
      }

      .cls-124 {
        fill: #6f1ff9;
      }

      .cls-125 {
        fill: #6e22f9;
      }

      .cls-126 {
        fill: #4a43ea;
      }

      .cls-127 {
        fill: #f82aaa;
      }
    </style>
  </defs>
  <g id="PAGINA_PRINCIPALA" data-name="PAGINA PRINCIPALA">
    <g>
      <path class="cls-90" d="m114.02,60.43c-.23.39-.15.83-.19,1.25-.67,7.98-2.91,15.48-6.72,22.53-.02.05-.06.09-.09.13-.26,0-.36-.21-.48-.37-1.76-2.36-3.98-4.22-6.35-5.93-.7-.51-1.53-.57-2.35-.66-1.54-.16-3.04-.49-4.53-.88-1.12-.29-1.91-1.06-2.76-1.77-1.41-1.18-2.98-2.08-4.64-2.85-1.1-.51-2.21-.98-3.32-1.44-.55-.23-.69-.64-.47-1.2.11-.29.28-.4.61-.33,1.29.26,1.96-.07,2.56-1.26.99-2,1.77-4.08,2.26-6.26.05-.21.11-.41.15-.61.12-.56.47-.84,1.02-.89.32-.03.63-.08.81-.4.09-.12.18-.25.25-.39.18-.51.13-.69-.33-.94-.32-.18-.61-.34-.56-.78.04-.41.31-.57.68-.69.42-.13.75-.43,1.04-.76.24-.26.26-.55.09-.87-.09-.17-.31-.3-.21-.55.14-.13.32-.14.49-.13,1.05.02,2.08-.13,3.1-.26,0,0,.02,0,.02,0,0,0-.04,0-.04,0-1.4-.29-2.77-.65-4.16-.97-.17-.04-.34-.06-.47-.2-.14-.2-.04-.37.07-.52.44-.6.89-1.19,1.51-1.62.61-.03,1.1.32,1.62.54,1.19.52,2.31,1.16,3.43,1.85-1.04-1.23-1.94-2.55-2.77-3.91-.16-.27-.32-.55-.42-.84-.03-.1-.06-.21.03-.29.09-.09.2-.06.29,0,.52.34,1.1.52,1.7.67.28.07.43.29.52.55.18.49.35.98.44,1.49-.1-.55-.05-1.1-.08-1.65-.02-.47.41-.42.74-.44.03,0,.07,0,.1,0,.03,0,.02,0-.04,0-.24,0-.48,0-.71.07-.43-.16-.43-.56-.47-.91-.29-2.41-1.06-4.66-2.27-6.75-.58-1-1.17-1.98-1.78-2.96-.57-.92-.74-2.03-1.03-3.07-.25-.91-.39-1.84-.57-2.77-.08-.74.25-1.29.81-1.72,1.43-1.08,3.06-1.65,4.83-1.87,3.01-.37,5.89-1.17,8.61-2.53.27-.14.54-.35.88-.24.2.1.31.28.42.46,2.15,3.4,3.93,6.99,5.32,10.76,1.38,3.74,2.36,7.59,2.94,11.53.22,1.51.37,3.02.4,4.54,0,.14-.05.28.05.4v.21c-.09.25-.09.49,0,.74v.21c-.11.21-.03.43-.05.64.03.24-.06.49.05.73v1.58c-.12.23-.03.48-.05.73.03.21-.06.44.05.64v.32c-.09.21-.09.42,0,.63v.32Z"/>
      <path class="cls-90" d="m60.22,0c.43.23.91.14,1.36.18,16.23,1.52,29.52,8.58,39.9,21.14.13.16.24.34.36.51-.59.61-1.41.82-2.14,1.17-1.77.84-3.65,1.32-5.56,1.67-1.69.31-3.28.85-4.67,1.9-.28.21-.56.3-.82-.05-.45-1.62-.93-3.23-1.65-4.75-.78-1.66-1.63-3.29-2.69-4.79-.28-.4-.53-.82-.77-1.25-.08-.3-.5-.67-.17-.88.33-.21.61.28.87.44-2.06-2.86-3.3-3.91-5.83-5.85-1.08-.83-2.34-1.39-3.5-2.11-.98-.61-1.96-1.22-2.94-1.84-.17-.1-.46-.2-.38-.43.08-.22.37-.16.57-.15.99.04,1.92.38,2.87.61.08.02.17.05.25.07.05,0,.08.06.14.04-.03,0-.06-.01-.09-.03-.38-.1-.72-.28-1.06-.46-1.74-.95-3.6-1.52-5.52-1.93-2.81-.6-5.63-1.07-8.47-1.45-1.69-.23-3.38-.22-5.05.22-.91.07-1.81.2-2.67.5-1.82.63-3.02,1.91-3.8,3.62-.72,1.6-1.36,3.22-1.56,4.99-.04.39-.23.72-.63.82-1.01.25-1.91.78-2.86,1.17-.99.41-1.56.24-2.13-.66-.13-.21-.27-.41-.34-.65-.71-2.39-2.03-4.48-3.22-6.64-.28-.51-.72-.95-.83-1.55,2.56-1.01,5.2-1.74,7.89-2.32,2.74-.6,5.51-.97,8.31-1.15.11,0,.25.06.31-.11h.21c.25.09.49.09.74,0h.21c.21.11.43.03.64.05.24-.03.49.06.73-.05h1.58c.23.12.48.03.73.05.21-.03.44.06.64-.05h.21c.25.09.49.09.74,0h.11Z"/>
      <path class="cls-90" d="m0,53.6c.23-.39.15-.83.19-1.25.48-5.81,1.82-11.41,4.01-16.8.03-.08.08-.15.12-.23.23,0,.27.21.33.36.6,1.52.79,3.11.7,4.73-.11,2.03-.65,4.01-.77,6.04-.19,3.25.39,6.36,2.1,9.18,1.58,2.6,2.75,5.35,3.27,8.36.27,1.55.44,3.12.39,4.7-.03,1,.01,2,.2,2.98.38,1.96,1.39,3.57,2.79,4.96.2.2.46.37.37.69-.09.34-.41.4-.71.47-1.01.22-2.03.39-3,.76-1.56.59-2.71,1.7-3.82,2.88-.14.15-.23.37-.49.35-1.25-2.45-2.22-5.02-3.06-7.64-1.37-4.32-2.19-8.76-2.51-13.28-.01-.14.08-.32-.12-.42v-.32c.09-.21.09-.42,0-.63v-.32c.11-.21.03-.43.05-.64-.03-.24.06-.49-.05-.73v-1.58c.12-.23.03-.48.05-.73-.03-.21.06-.44-.05-.64v-.32c.09-.21.09-.42,0-.63v-.32Z"/>
      <path class="cls-109" d="m56.22,0c-.23.2-.49.07-.74.1-.03-.02-.04-.05-.03-.07.01-.02.02-.03.03-.03h.74Z"/>
      <path class="cls-109" d="m58.54.1c-.25-.02-.52.1-.74-.1h.74s.04.04.04.06c0,.02-.02.03-.03.03Z"/>
      <path class="cls-36" d="m60.11,0c-.25.2-.49.14-.74,0h.74Z"/>
      <path class="cls-109" d="m.1,55.48c-.02.25.1.52-.1.74v-.74s.06-.05.1,0Z"/>
      <path class="cls-109" d="m0,57.8c.2.23.07.49.1.74-.04.04-.07.04-.1,0v-.74Z"/>
      <path class="cls-36" d="m54.65,0c-.25.14-.49.2-.74,0h.74Z"/>
      <path class="cls-94" d="m0,58.54s.07,0,.1,0c-.03.21.11.44-.1.62v-.63Z"/>
      <path class="cls-94" d="m58.54.1s0-.06,0-.1h.63c-.18.21-.42.06-.62.1Z"/>
      <path class="cls-94" d="m55.49,0s0,.07,0,.1c-.21-.03-.44.11-.62-.1h.63Z"/>
      <path class="cls-36" d="m0,53.91c.18.21.15.42,0,.63v-.63Z"/>
      <path class="cls-36" d="m0,59.48c.15.21.18.42,0,.63v-.63Z"/>
      <path class="cls-94" d="m.1,55.48s-.06,0-.1,0v-.63c.21.18.06.42.1.62Z"/>
      <path class="cls-54" d="m5.68,81.77c.9-1.03,1.83-2.02,3.01-2.75,1.29-.79,2.72-1.08,4.16-1.36.12-.02.24-.05.36-.08.18-.03.35-.11.39-.3.04-.19-.1-.32-.24-.44-1.62-1.5-2.67-3.32-3.04-5.5-.2-1.18-.09-2.38-.13-3.56-.14-4.34-1.33-8.36-3.62-12.07-1.84-2.97-2.39-6.27-2.09-9.73.16-1.88.64-3.72.72-5.61.07-1.75-.13-3.45-.88-5.06.19-.56.41-1.11.7-1.63.34.16.42.5.54.8.58,1.42.9,2.89,1.02,4.42.15,1.89-.15,3.72-.48,5.56-.07.4-.24.77-.4,1.14-.26,1.04-.25,2.08-.03,3.13.29,1.6.59,3.19,1.16,4.73.64,1.7,1.55,3.25,2.41,4.83,1.12,2.07,1.76,4.26,1.73,6.62,0,.46,0,.91,0,1.37,0,.24,0,.48,0,.71,0,.68.03,1.37-.01,2.05-.12,2.05.65,3.84,1.6,5.57.4.73,1.02,1.29,1.64,1.83.48.41,1.04.53,1.67.37,1.04-.26,2.09-.45,3.16-.45.07,0,.14,0,.21-.02.3-.08.71-.05.8-.4.07-.31-.33-.41-.54-.57-1.56-1.17-2.79-2.65-3.88-4.24-.42-.62-.61-1.33-.71-2.07-.21-1.61-.57-3.21-.72-4.83-.02-.21-.06-.42-.05-.63.1-2.27-.63-4.34-1.56-6.36-.69-1.49-1.55-2.9-2.21-4.41-.74-1.72-1.16-3.52-1.27-5.39-.02-.33-.05-.67.09-.99.12-.19.1-.4.1-.61,0-2.12,0-4.24,0-6.35,0-.23,0-.46-.12-.66-.22-.31-.31-.66-.3-1.04.06-2.37-.71-4.43-2.32-6.17-.14-.16-.27-.33-.3-.54.19-.49.46-.94.72-1.4.85.72,1.44,1.66,2.02,2.59,1.32,2.12,1.97,4.43,1.95,6.93,0,1.33,0,2.66,0,3.99,0,.75.17,1.5.11,2.25-.27,3.34.73,6.35,2.36,9.21.94,1.65,1.76,3.35,2.23,5.2.23.9.31,1.82.36,2.75.08,1.59.35,3.16.57,4.74.05.36.12.73.15,1.09.08.95.37,1.8.98,2.55,1.06,1.31,2.2,2.54,3.62,3.47.61.4,1.17.47,1.86.15,1.44-.68,2.9-1.33,4.36-1.96.57-.25.6-.42.22-.88-.61-.73-.74-1.58-.47-2.46.14-.44.08-.78-.25-1.09-.19-.18-.34-.4-.49-.62-.31-.46-.44-.96-.24-1.5.16-.43.1-.8-.21-1.16-.3-.34-.49-.76-.74-1.14-.22-.34-.24-.73-.15-1.12.11-.55-.07-.96-.55-1.25-.45-.27-.7-.68-.75-1.2-.06-.55-.25-1.05-.58-1.5-.48-.66-.81-1.4-.91-2.21-.14-1.05-.67-1.99-.79-3.05-.07-.63-.06-1.22.39-1.73.36-.42.64-.52,1.15-.31.31.13.44.05.54-.25.25-.78.54-1.56.72-2.36.35-1.56,1.56-2.34,3.13-2.01.83.17,1.62.44,2.36.94.12-.29.06-.55.03-.8-.3-2.33-.82-4.62-1.14-6.94-.15-1.08-.28-2.15-.39-3.23-.07-.72-.33-1.34-.84-1.87-.93-.96-1.4-2.11-1.36-3.47.03-1.03.46-1.76,1.46-2.08.72-.23.99-.67,1.07-1.36.11-.88.26-1.77.55-2.62.18-.5.37-.99.69-1.41.4-.5.58-1.06.62-1.69.07-.97.45-1.83,1.07-2.58.25-.3.29-.59.2-.97-.77-3.12-2.19-5.93-4.09-8.52-.36-.49-.76-.96-1-1.53.28-.16.55-.32.83-.49.21.05.32.21.43.37,1.91,2.63,3.6,5.38,4.7,8.46.09.26.24.51.33.77.22.65.73.84,1.33.95.16.03.31,0,.44-.11.99-.74,1.26-1.62.8-2.77-1.01-2.51-2.32-4.86-3.7-7.18-.38-.63-.82-1.22-1.22-1.83-.07-.1-.13-.21-.09-.34.35-.18.7-.37,1.04-.55.57.45.93,1.08,1.33,1.66,1.74,2.54,3.04,5.3,4.09,8.19.04.11.06.24.14.34,0,.01.03.01.06.02.14-.19.13-.42.19-.63.22-.85.59-1.56,1.47-1.91.44-.18.51-.49.28-1.06-.35-.86-.74-1.7-1.18-2.51-.94-1.72-1.97-3.38-3.22-4.9-.12-.15-.25-.3-.21-.51.22-.16.47-.26.73-.31.18.01.26.16.36.28,1.68,2.31,3.27,4.68,4.28,7.38.08.21.14.43.24.64.09.2.21.37.4.47.16.08.34.14.49,0,.14-.13.08-.29.02-.44-1.12-2.87-2.57-5.56-4.49-7.98-.17-.21-.4-.4-.41-.71.3-.15.6-.28.93-.35,1.61,2.6,3.25,5.2,4.19,8.14.08.26.23.51.39.74.49.74.98.88,1.79.54.98-.41,1.91-.97,2.96-1.21.35-.08.52-.35.55-.69.18-1.82.85-3.5,1.6-5.14,1.26-2.77,3.53-3.99,6.49-4.1.06.07.07.14.05.23-.12.21-.33.24-.53.29-.58.14-1.14.34-1.71.49-1.51.41-2.52,1.41-3.34,2.69-1.43,2.24-1.98,4.71-2,7.33,0,.22.04.45-.06.66.54-1.24,1.03-2.5,1.76-3.65.24-.38.44-.8.87-1.03.09,0,.15.04.18.12.02.27-.17.45-.28.67-.39.77-.72,1.56-1,2.37-.28.82.05,1.52.4,2.25.25-.18.26-.41.35-.59,1.11-2.18,2.17-4.4,3.56-6.42.26-.38.47-.83.95-1.02.33,0,.5-.27.74-.43.25-.16.48-.35.76-.43.19-.05.42-.14.47.19-.06.15-.2.24-.32.34-1.64,1.21-2.85,2.77-3.75,4.58-.37.73-.74,1.47-1.2,2.15-.43.62-.61,1.32-.6,2.08.01,1.21,0,2.41,0,3.62,0,.1,0,.21.07.33.46-.28.83-.64,1.24-.95,1.53-1.17,3.02-2.4,4.92-2.94.29-.08.57-.2.86-.04.04.04.06.08.05.14-.37.33-.91.34-1.28.67-.12.11-.32.14-.4.35.41,0,.76-.18,1.14-.19.27.04.71-.15.78.19.05.26-.42.28-.66.38-1.05.41-2.14.75-3.1,1.37-.55.35-1,.81-1.41,1.31-.16.2-.3.42-.32.73.76-.08,1.47-.5,2.21-.16.08.21-.07.31-.21.41-.65.3-1.38.39-2,.79-.4.25-.71.57-.86,1.02-.03.1-.09.21,0,.29.09.08.21.02.29-.04.45-.29.96-.3,1.47-.35,1.18-.11,2.38-.02,3.56-.14.33-.03.84.03.87.4.03.4-.49.35-.79.42-.63.14-1.29.06-1.93.18-.95.17-1.84.43-2.48,1.23-.17.21-.36.42-.42.81,1.21-.48,2.42-.74,3.62-1.02.16-.04.33-.04.5-.05,2.81.08,5,1.31,6.57,3.62,1.25,1.84,1.98,3.93,2.63,6.04.68,2.21,1.13,4.48,1.89,6.66.43,1.24.89,2.47,1.61,3.58.17.29.38.54.59.8.11.16.24.36.11.52-.16.19-.34-.03-.5-.08-1.13-1.47-1.99-3.07-2.63-4.81-.82-2.24-1.33-4.57-2.16-6.81-.77-2.07-1.66-4.09-2.93-5.91-1.07-1.54-2.56-2.3-4.41-2.35-.89-.03-1.78-.09-2.67.11-.83.18-1.55.55-2.16,1.13-.09.08-.17.18-.27.25-.39.28-.67.15-.71-.33-.07-.8.06-1.57.47-2.28.07-.11.2-.24.09-.38-.09-.1-.23-.01-.35,0-.59.11-.79-.09-.72-.72.12-.99.28-1.98.7-2.9.05-.11.12-.21.08-.39-.5.31-.78.79-1.09,1.24-.16.24-.26.66-.58.6-.29-.06-.23-.48-.24-.74-.03-.89,0-1.79.09-2.67.08-.84-.08-1.6-.36-2.36-.21-.56-.5-1.07-.81-1.66-.3.48-.42.95-.59,1.39-.09.22-.13.56-.39.57-.3,0-.36-.34-.45-.58-.19-.53-.26-1.09-.29-1.65-.03-.52-.14-.61-.61-.43-.93.37-1.84.78-2.76,1.15-.3.12-.41.32-.27.62.67,1.47.98,3.06,1.46,4.6.25,1.96.93,3.8,1.67,5.62.35.88.72,1.75,1.08,2.62.39.94.43,1.9.12,2.87-.3.93-.99,1.34-1.94,1.15-.8-.16-1.48-.54-2.01-1.15-.3-.34-.6-.68-.87-1.05-2.09-3.43-3.63-7.09-4.7-10.96-.02-.07,0,.02-.01-.05-.21-.74-.19-.72-.75-.23-.5.44-.96.92-1.48,1.33-.37.29-.46.63-.34,1.06.28.99.71,1.94.97,2.94.09.35.27.69.12,1.07-.33.07-.35-.23-.44-.4-.47-.94-.78-1.95-1.15-2.93-.15-.39-.27-.8-.5-1.16-.32-.51-.63-.61-1.14-.31-.98.57-2,1.77-1.45,3.36,1.51,4.31,3.91,7.97,7.73,10.59.55.38,1.16.66,1.82.78.44.08.86-.12,1.06-.51.19-.37-.01-.61-.26-.87-1.31-1.34-2.6-2.71-3.52-4.36-.22-.39-.52-.75-.52-1.24.38-.14.49.21.63.41.52.76,1.1,1.48,1.71,2.18.81.93,1.52,1.96,2.52,2.71,1.05.79.66,1.81-.09,2.41-.63.51-1.36.47-2.09.26-2.17-1.06-4.02-2.54-5.62-4.33-1.64-1.83-2.9-3.9-3.86-6.16-.05-.11-.06-.27-.2-.28-.14-.01-.19.14-.25.24-.75,1.24-1,2.6-.99,4.02,0,.36.22.66.41.95,1.07,1.61,2.39,2.96,4.02,4.02.21.17.44.33.64.52.12.12.28.22.15.43-.69-.02-1.28-.34-1.79-.75-1.34-1.09-2.69-2.18-3.74-3.58-.57-.75-1.5-.63-1.99.19-.51.85-.37,1.71,0,2.56.38.86,1.1,1.45,1.76,2.06.95.87,1.96,1.69,3.1,2.31,1.8.99,3.72,1.39,5.76,1.25.32-.02.58-.14.71-.46.14-.35.02-.67-.23-.91-.45-.42-.96-.76-1.51-1.04-.25-.12-.53-.21-.64-.51,0-.09.06-.15.14-.18,1.35.16,2.39.82,3.12,1.96.22.34.19.74.09,1.12-.15.58-.15.58.44.74.95.24,1.89.51,2.83.8,2.05.63,4.02,1.43,5.83,2.6,1.06.69,1.99,1.5,2.39,2.76.23.73.22,1.45-.13,2.14-.17.34-.36.68-.51,1.04-.3.74-.16,1.1.58,1.41.81.35,1.57.77,2.25,1.34.77.64.88,1.41.32,2.06-.34.4-.83.57-1.32.71-.69.08-1.22-.38-1.83-.56-.15-.04-.29-.13-.43-.2-.23-.12-.45-.24-.62.09-.16.31-.07.54.24.69.24.11.47.24.67.41.12.11.35.21.23.41-.1.17-.32.1-.49.06-.35-.1-.69-.25-1.14-.29.18.19.35.25.52.32.21.09.42.17.61.3.2.13.5.26.4.53-.1.25-.4.11-.62.09-.42-.04-.83-.08-1.25-.16-.97-.19-1.06-.13-1.15.83-.07.31-.48.55-.4.81.09.27.54.04.8.19.08.04.14.09.19.17.1.23.01.45-.06.66-.74,2.3-1.48,4.6-2.2,6.9-.59,1.91-1.89,2.86-3.91,2.85-2,0-3.99,0-5.97.32-.48.08-.96.18-1.44.31-.45.12-.67.4-.65.88.07,1.23.39,2.42.72,3.59.78,2.72,2.18,5.07,4.27,6.99.76.7,1.57,1.33,2.29,2.08,1.46,1.51,2.76,3.16,4.29,4.61,2.54,2.42,5.33,4.48,8.59,5.84,1.34.56,2.74.89,4.18.93,1.69.04,3.29-.37,4.78-1.2,1.87-1.03,3.35-2.51,4.76-4.08,1.25-1.39,2.55-2.74,3.92-4.03.19-.18.37-.37.47-.62.5-1.31.74-2.66.69-4.06-.01-.31-.11-.63.13-.9.18-.05.3.05.44.13.14.32.54.54.38.98-.13.09-.26.18-.27.36-.08,1.08-.35,2.12-.59,3.28.85-.86,1.6-1.67,2.26-2.57.15-.18.31-.36.45-.54,1.3-1.47,2.55-2.97,3.53-4.69.86-1.51,1.39-3.13,1.61-4.85.13-1.03.34-2.04.6-3.04.62-2.36,1.02-4.76,1.37-7.16.17-1.16.18-2.34.14-3.51-.03-.88.1-1.74.21-2.61.02-.18.06-.35.19-.48.07-.08.15-.15.25-.21.14-.04.25,0,.35.1.06.11-.13.28.09.34.17.05.34.06.42-.15-.07-.17-.21-.31-.16-.51.04-.16.15-.27.26-.38.44-.37.96-.52,1.51-.56.6,0,.84.42,1.07.87.25.59.23,1.21.22,1.82-.09,1.04-.4,2.03-.87,2.96-.44.88-.82,1.78-1.07,2.73-.08.31-.25.57-.42.84-.61.94-1.28,1.84-1.77,2.86-.3.64-.52,1.3-.5,2.02,0,.38.14.68.49.86.36.2.67.07.98-.14.28-.19.49-.45.63-.76,1.06-2.38,1.88-4.83,2.25-7.41.02-.17,0-.36.17-.48.8.04,1.61.09,2.42.07-.16.4-.48.53-.88.53-.56,0-.85.25-.97.81-.47,2.31-1.26,4.51-2.27,6.63-.72,1.51-1.3,1.81-2.94,1.52-.22-.04-.29.06-.33.23-.08.33-.29.68.09.95.15.11.34.17.52.24,2.3.95,4.59,1.91,6.64,3.35.39.27.8.53,1.12.86,1.25,1.3,2.82,1.88,4.55,2.19,1.17.21,2.34.39,3.52.53.69.08,1.3.37,1.86.78,2.43,1.78,4.64,3.77,6.44,6.2-.12.24-.25.48-.37.72-.25.07-.34-.13-.44-.28-.18-.25-.35-.51-.52-.77-1.02-1.39-2.19-2.63-3.49-3.76-.36-.31-.7-.64-.98-1.02-.27-.37-.62-.59-1.09-.64-1.66-.16-3.24-.74-4.89-.94-2.3-.29-4.6-.28-6.9,0-2.19.26-4.28.87-6.29,1.78-.37.17-.71.37-1.05.59-.28.18-.3.39-.01.57,1.61.99,2.77,2.5,4.29,3.61,1.1.8,1.7,2.07,2.14,3.37.13.4.25.8.35,1.21.17,2.62-.02,5.19-.69,7.74-.88,3.34-1.7,6.68-2.65,10-.07.26-.18.49-.36.69-.19.12-.38.24-.62.23-.2-.33.01-.61.11-.89.45-1.22.84-2.45,1.02-3.74.02-.12.04-.24.05-.36.07-.94-.09-1.1-1-1.18-.94-.08-1.88-.13-2.83-.2-1.6-.11-3.17.2-4.76.35-1.5.14-3,.19-4.5.27-.8.04-1.6.21-2.41.07-.97-.12-1.94-.1-2.91,0-.67.14-1.32-.1-1.99-.06-.84.04-.99.18-.87,1.01.19,1.35.28,2.71.44,4.07.04.31,0,.63-.03.94-.1.88.29,1.29,1.18,1.21.38-.03.76-.1,1.15-.02.88.18,1.78.18,2.68.15.07,0,0-.12,0-.05,0,0,0,.01-.02.01-.59.05-1.18.12-1.77-.04.08-.2.27-.2.44-.23.16-.02.31-.02.47-.01,2.41.07,4.83-.06,7.24-.14,1.68-.05,3.36.05,5.03-.16.35-.04.74-.12,1.05.17-.44.27-.92.48-1.41.64-.72.14-1.45.23-2.19.23-1.61-.01-3.22-.04-4.82.09-.37.03-.68.14-.96.37-1.27,1-2.64,1.85-4,2.69-.37.23-.77.41-1.18.57-1.09.25-2.2.39-3.32.32.04-.41.41-.48.68-.64,1.41-.84,2.87-1.61,4.24-2.52.27-.18.54-.37.85-.66-.91-.18-1.74-.08-2.57-.08-1.97,0-3.81.69-5.73.96-.68.1-1.33-.02-1.98-.15-.69-.14-1.34-.12-2,.13-1.19.45-2.41.33-3.62.09-1.29-.25-2.56-.57-3.82-.93-.92-.26-1.85-.37-2.8-.36-1.05,0-2.1.08-3.14-.08-.13-.02-.28-.06-.41.09.19.23.45.38.69.54,1.35.9,2.67,1.86,4.02,2.76.23.15.49.28.61.56-.06.21-.21.14-.35.1-.97-.14-1.94-.3-2.9-.55-1.61-.74-3.05-1.78-4.53-2.73-.9-.58-1.82-.86-2.89-.93-1.12-.07-2.23-.06-3.35-.08-.3,0-.59-.04-.88-.11-.4-.13-.78-.31-1.13-.54.16-.21.41-.18.63-.18,3.08,0,6.16-.06,9.24.02,1.8.04,3.6.12,5.39.25.55.04.76-.09.96-.6.26-.66.39-1.33.22-2.05-.11-.46-.12-.94-.21-1.4-.11-.58-.31-1.11-.69-1.57-.27-.32-.4-.68-.44-1.1-.05-.49-.19-.61-.68-.57-1.31.12-2.61-.14-3.92-.18-.17,0-.35-.04-.52-.04-2.43-.04-4.86-.07-7.29-.13-2.19-.05-4.37.14-6.55,0-.48-.03-.62.14-.54.7.14.93.32,1.86.5,2.79.1.52.21,1.03.3,1.55.04.2.11.41-.04.6-.45-.19-.87-.45-1.26-.74-.19-.24-.29-.51-.37-.8-.73-2.71-1.19-5.47-1.38-8.27-.04-.63-.14-1.25-.04-1.88.11-1.14.1-2.28,0-3.42-.06-.4-.06-.8-.01-1.2.12-.81.28-1.62.4-2.43.28-2.01,1.21-3.55,2.95-4.66,1.34-.85,2.62-1.8,4.19-2.29-1.47-.86-2.74-1.92-4.24-2.63-1.87-.89-3.82-1.37-5.89-1.28-1.29.06-2.56.37-3.85.51-2.76.31-5.45.88-8.08,1.79-.96.33-1.89.74-2.69,1.38-.74.53-1.23,1.3-1.85,1.94-.13.13-.21.34-.46.23-.14-.32-.28-.64-.43-.96Z"/>
      <path class="cls-97" d="m25.75,94.79c.06,2.9.43,5.77,1.1,8.6.18.78.39,1.55.59,2.33-.41-.21-.81-.44-1.17-.72-.03-.38-.01-.76-.16-1.12-.08-.2-.19-.36-.41-.43-.65-.74-1.4-.53-2.17-.26-.72-.6-1.53-1.1-2.21-1.76.24-.22.56-.17.84-.24.41-.1.86-.14.99-.65.13-.51-.19-.82-.55-1.09-.46-.86-.78-1.79-1.12-2.7-.26-.68-.49-1.38-.67-2.09-.16-.6-.36-.8-.96-.75-1.53.13-3.07.06-4.61.1-.45.01-.54.14-.47.6.03.2.12.41-.03.6-.89-.86-1.65-1.84-2.42-2.8-2.4-3.01-4.44-6.26-6.2-9.68.52-.35.85-.89,1.26-1.35.29-.32.57-.64.93-.88.87-.21,1.75-.34,2.62-.55,1.23-.31,2.46-.25,3.7-.11,1.64.18,3.26.39,4.82.99,2.13.82,3.67,2.26,4.78,4.22.45.79.88,1.59,1.22,2.44.34.85.47,1.71.32,2.61,0,.41,0,.83-.01,1.24.14.45,0,.9-.01,1.34-.03.71.14,1.42.02,2.12Z"/>
      <path class="cls-97" d="m105.81,83.97c.33.33.46.81.85,1.08-1.71,3-3.65,5.83-5.86,8.48-1.13,1.35-2.29,2.68-3.59,3.88-.2-.26-.04-.54-.01-.8.03-.31-.08-.47-.4-.45-1.57.1-3.14.01-4.71.05-.09,0-.17,0-.26.04-.11.04-.22.05-.32.09-.29.16-.28.47-.34.74-.34,1.6-.92,3.12-1.46,4.65-.72.52-.69,1.22.08,1.67.06.04.12.07.16.13-1.86,1.38-3.84,2.58-5.88,3.67,1.3-4.54,2.54-9.09,3.5-13.72.23-1.09.08-2.2.07-3.3,0-.49,0-.98,0-1.47,1.03-1.87,2.49-3.32,4.35-4.36,1.99-1.11,4.16-1.59,6.4-1.89,1.85-.24,3.57.27,5.3.79.72.21,1.47.34,2.12.74Z"/>
      <path class="cls-47" d="m69.15,101.62c3.09-.13,6.19-.24,9.26-.66,1.58-.22,3.14,0,4.71.07.26.01.52.04.79.05.71.03.93.25.91.98-.03,1.02-.26,2.01-.57,2.98-.25.8-.53,1.58-.79,2.38-.64.56-1.44.83-2.2,1.16-3.14.08-6.28.16-9.43.24-1.4.03-2.79.06-4.19.09-.21,0-.42-.03-.62.06-.3.12-.61.08-.91.02-.52.02-1.05.08-1.56.04-.72-.06-.97-.35-.92-1.06.12-1.83-.2-3.61-.42-5.41-.1-.8.07-1.04.87-1.01.71.02,1.43.06,2.14.09.98,0,1.96,0,2.94,0Z"/>
      <path class="cls-47" d="m28.7,106.46c-.3-1.58-.6-3.16-.9-4.74-.04-.19-.06-.38-.07-.57-.02-.42.21-.57.59-.53,1.43.14,2.87,0,4.3.01,4.01.03,8.02.03,12.02.33.75.06,1.5.14,2.25.06.59-.06.73.08.72.67,0,.39.11.71.37,1,.55.61.72,1.38.83,2.17.14,1.03.39,2.04-.09,3.09-.24.54-.52.71-1.05.69-1.94-.1-3.88-.23-5.82-.26-3.17-.04-6.34,0-9.51,0-1.27-.54-2.48-1.19-3.64-1.91Z"/>
      <path class="cls-17" d="m48.33,113.2c-1.77-1.22-3.54-2.44-5.31-3.67-.13-.09-.39-.15-.32-.35.07-.21.31-.1.47-.09,1.33.13,2.65.14,3.98.09.97-.03,1.9.24,2.83.5,1.37.38,2.74.73,4.14.92,1,.14,1.99.1,2.94-.3.49-.21.99-.24,1.49-.11,1.43.35,2.84.23,4.24-.18,2.16-.62,4.37-.68,6.64-.53-.1.3-.33.41-.51.55-1.44,1.1-3.07,1.89-4.6,2.82-.32.2-.7.32-.95.63-4.68,0-9.36,0-14.04,0-.26,0-.52-.07-.77-.1-.08-.05-.17-.11-.23-.19Z"/>
      <path class="cls-11" d="m66.69,113.17c.71-.45,1.42-.88,2.12-1.34.75-.49,1.54-.92,2.21-1.5.84-.73,1.76-1.03,2.86-1.02,1.99,0,3.98-.06,5.97-.09-2.28,1.07-4.66,1.88-7.08,2.58-2,.58-4.01,1.08-6.07,1.37Z"/>
      <path class="cls-124" d="m14.74,95.2c-.05-.26-.09-.51-.15-.77-.1-.42.08-.59.48-.6,1.68-.02,3.35-.05,5.03-.08.48,0,.73.23.83.7.35,1.67,1.1,3.19,1.67,4.79.02.06.08.11.12.17.48.89.21,1.41-.81,1.52-.41.04-.82.2-1.22-.03-.24-.13-.46-.3-.63-.51.38-.32.86-.24,1.29-.33.59-.12.63-.17.43-.72-.18-.49-.35-.99-.49-1.5-.19-.65-.39-.79-1.06-.72-.44.04-.88,0-1.31.03-.61.06-.77.33-.6.93.1.34.46.61.28,1.02-.35-.24-.64-.53-.91-.85-.24-.24-.27-.56-.31-.86-.11-.88-.67-1.41-1.38-1.83-.1.32.3.68-.11.95-.38-.44-.83-.82-1.16-1.3Z"/>
      <path class="cls-1" d="m33.48,108.91c1.84-.04,3.67-.08,5.5.16.25.03.48.09.69.22,1.77,1.1,3.53,2.21,5.29,3.31.06.04.1.09.15.14-4.03-.83-7.92-2.09-11.65-3.84Z"/>
      <path class="cls-124" d="m89.63,101.73c.47-1.74,1.23-3.4,1.5-5.2.03-.18.09-.34.31-.37.99.1,1.99.02,2.98.05.46.01.91-.02,1.37,0-1.19-.01-2.37,0-3.56-.01-.17,0-.35.06-.51-.06.34-.13.69-.06,1.03-.07,1.37-.04,2.75.07,4.13-.1.42-.05.58.16.51.57-.05.29-.11.58-.17.87-.32.32-.65.65-.97.97-.34-.21-.2-.48-.16-.71-.87.46-1.34,1.28-1.6,2.26-.18.19-.32.42-.62.45-.01-.01-.03-.02-.04-.04q-.17-.83-1.09-.89c-1.51-.1-1.66,0-2.12,1.45-.02.05-.03.1-.05.15-.1.33-.24.66-.22,1.02.03.48.58.31.78.59-.17.2-.38.35-.62.45-.39.15-.75.07-.97-.28-.23-.36-.21-.76.1-1.11Z"/>
      <path class="cls-1" d="m18.6,99.1c-.15-.37-.32-.74-.44-1.12-.19-.57.06-.94.65-.97.59-.03,1.18.01,1.77-.09.38-.06.66.21.76.59.2.71.42,1.4.69,2.09.12.32.02.53-.37.57-.54.05-1.07.14-1.61.22-.53-.38-1.01-.81-1.46-1.29Z"/>
      <path class="cls-1" d="m91.11,102.66c-.16-.02-.31-.06-.47-.07-.45-.03-.56-.31-.47-.69.16-.66.35-1.31.6-1.95.16-.41.46-.6.88-.62.65-.03,1.29,0,1.93.09.29.04.39.2.36.47-.02.17-.06.34-.1.51-.03.24-.24.33-.4.46-.77.62-1.51,1.28-2.35,1.82Z"/>
      <path class="cls-34" d="m15.89,96.51c.23-.38-.14-.72-.08-1.09.6.08,1.46.86,1.61,1.5.1.44.17.88.26,1.32-.67-.51-1.21-1.14-1.79-1.74Z"/>
      <path class="cls-39" d="m20.69,100.9c.41-.04.82-.08,1.24-.12.81-.07.96-.26.82-1.06-.02-.1-.02-.21-.03-.31.47.22.66.61.6,1.1-.06.48-.41.69-.87.76-.38.05-.74.17-1.13.15-.25-.13-.47-.29-.63-.52Z"/>
      <path class="cls-34" d="m94.48,99.94c.11-1.21.31-1.51,1.63-2.44.17.28-.09.62.13.89-.59.52-1.12,1.09-1.76,1.55Z"/>
      <path class="cls-41" d="m23.53,103.18c.48-.62,1.68-.5,2.22.23.23.43.43.86.19,1.35-.23,0-.35-.19-.5-.31-.15-.76-.66-.98-1.36-.93-.18-.11-.37-.22-.55-.33Z"/>
      <path class="cls-8" d="m89.63,101.73s0,.07,0,.1c-.22,1.01-.15,1.11.87,1.28-.18.13-.36.27-.54.4-.78-.14-1.13-.86-.75-1.55.1-.18.23-.25.42-.23Z"/>
      <path class="cls-105" d="m24.08,103.51c.05,0,.1-.02.15-.03,1.08-.17,1.1-.15,1.21.96-.49-.26-.94-.58-1.36-.93Z"/>
      <path class="cls-42" d="m25.94,104.76c-.06-.45-.13-.9-.19-1.35.12-.07.25-.07.31.07.21.48.5.97.21,1.52-.11-.08-.22-.16-.33-.24Z"/>
      <path class="cls-77" d="m48.33,113.2c.11.03.19.08.23.19-.18,0-.37.03-.54-.09.1-.04.23.02.31-.1Z"/>
      <path class="cls-54" d="m103.94,24.7c.35.4.62.85.89,1.3-2.1,1.07-4.27,1.94-6.58,2.41-1.45.3-2.93.5-4.38.81-1.16.25-2.21.77-3.16,1.48-.56.42-.86.95-.85,1.66.03.14.13.3-.12.34-.07-.06-.13-.13-.15-.21-.24-1.11-.5-2.22-.58-3.37.17-.34-.09-.78.25-1.08.27.13.18.38.2.59.05.39-.17.91.25,1.11.38.19.67-.27.98-.46,1.72-1.06,3.6-1.71,5.57-2.11,1.8-.37,3.61-.68,5.31-1.43.64-.28,1.26-.61,1.89-.92.15-.07.29-.21.49-.13Z"/>
      <path class="cls-15" d="m89.76,32.68c.11-.09.08-.21.1-.33.31,1.46.58,2.94,1.05,4.36.2.61.38,1.22.76,1.77,1.8,2.61,3.16,5.42,3.78,8.55.08.39.07.8.14,1.19.04.2.03.48.34.52.22-.01.45-.17.62.1-.5,0-.77.1-.64.73.09.46.11.96-.1,1.48-.18-.59-.34-1.13-.51-1.66-.08-.24-.19-.46-.47-.5-.68-.1-1.29-.37-1.9-.73.9,1.93,2.16,3.62,3.45,5.32-.69-.39-1.37-.8-2.08-1.17-1.06-.56-2.12-1.15-3.29-1.47-.04-.12.02-.2.12-.25.4-.04.75.15,1.1.29.9.35,1.78.73,2.62,1.24-.69-.77-1.27-1.6-1.72-2.51-.6-1.22-1.39-2.3-2.35-3.26-.94-.94-1.81-1.95-2.44-3.14-.06-.11-.13-.21-.13-.34.01-.05.04-.09.09-.12.18,0,.29.11.4.22,1.07,1.04,2.1,2.11,3.07,3.23.71.82,1.45,1.62,2.52,1.99.65.23.78.14.77-.54,0-.32-.1-.62-.2-.92-.58-1.7-.93-3.49-1.84-5.07-.16-.27-.28-.56-.49-.81-1.71-2.03-2.41-4.47-2.83-7.02-.06-.38-.26-.78.04-1.15Z"/>
      <path class="cls-54" d="m90.48,54.65c.67.62.68,1.06-.01,1.64-.3.25-.58.54-1.02.59-.32.04-.44.3-.46.61-.02.32.19.41.43.51.68.28.79.57.45,1.2-.24-.13-.49-.12-.76-.12-.64.02-1.3.16-1.87-.29-.06-.1-.06-.21,0-.3.3-.59.45-1.23.6-1.86.23-.18.5-.12.76-.12.37,0,.73-.03,1.08-.16.25-.09.48-.22.63-.45.09-.13.19-.3.04-.42-.13-.11-.26.05-.35.14-.52.52-1.17.58-1.85.53-.19-.02-.38-.06-.52-.22-.08-.15-.05-.31.02-.45.31-.61.46-1.26.58-1.93.17-.18.39-.12.6-.15.33.07.66.17.9.43-.01.53.52.54.78.82Z"/>
      <path class="cls-54" d="m91.11,50.67c-.03.06-.07.12-.1.19-.43.49-.87.98-1.29,1.48-.13.15-.29.31-.29.53.04.06.03.1-.03.14-.64,0-1.17-.26-1.67-.63-.08-.06-.14-.16-.1-.28.29-.21.65-.06.96-.17.27-.09.75-.13.67-.43-.11-.37-.52-.14-.81-.07-.34.08-.66.37-1.03.12-.23-.54-.65-.47-1.09-.34-.42-.33-.48-.57-.25-.96.43-.09.82.12,1.23.19.18.06.35.12.53.16.22.1.46.12.63.1-.14-.02-.36.02-.56-.08-.12-.06-.3-.06-.27-.27.12-.18.31-.23.5-.25.88-.08,1.75-.02,2.59.25.17.05.34.11.39.31Z"/>
      <path class="cls-73" d="m89.42,53s0-.09,0-.13c1.61.38,3.22.77,4.83,1.15.06.05.17.07.1.19-1.08.23-2.18.3-3.28.33-.2,0-.42-.07-.6.1-.06-.03-.13-.08-.19-.08-.48.04-.72-.16-.65-.66.18-.14.38-.05.55,0,.63.19,1.27.2,1.93.13-.35-.15-.72-.23-1.09-.31-.41-.08-.82-.17-1.2-.37-.16-.09-.37-.14-.41-.37Z"/>
      <path class="cls-82" d="m87.26,58.74c.68.27,1.37.33,2.08.15.3-.07.47,0,.52.31-.02.13-.09.23-.19.31-.8.31-1.6.12-2.4,0-.29,0-.33-.2-.34-.41-.01-.22.11-.35.34-.36Z"/>
      <path class="cls-106" d="m96.56,48.85c-.18-.17-.42-.04-.62-.1.31-.16.63-.07.99-.09-.11.17-.23.2-.37.19Z"/>
      <path class="cls-87" d="m94.36,54.21c-.03-.06-.07-.12-.1-.19.1,0,.22-.04.26.07.04.12-.08.11-.16.11Z"/>
      <path class="cls-90" d="m26.81,8.67c.5.43.79,1.02,1.17,1.54,1.92,2.61,3.33,5.46,4.09,8.62.07.29.12.53-.11.77-.86.91-1.2,2.03-1.25,3.26,0,.19,0,.39-.14.54-1.12,1.27-1.44,2.85-1.64,4.46-.1.82-.33,1.36-1.23,1.62-1.1.32-1.52,1.33-1.3,2.71.14.9.46,1.76,1.13,2.38.84.79,1.05,1.78,1.15,2.84.22,2.49.69,4.95,1.13,7.41.18,1.03.39,2.06.34,3.21-.8-.57-1.63-.89-2.52-1.09-1.56-.36-2.68.37-3.05,1.91-.22.92-.56,1.8-.83,2.71-.07.24-.16.23-.37.12-.79-.44-1.6.06-1.62,1.01-.01.7.09,1.4.34,2.06.19.49.35.99.43,1.51.13.92.46,1.75,1.02,2.5.32.43.51.91.53,1.46.02.45.23.82.62,1.03.63.34.83.84.66,1.53-.1.43,0,.84.3,1.18.31.36.46.81.82,1.15.22.21.21.54.09.79-.39.82-.08,1.47.49,2.03.48.47.58.88.36,1.57-.24.75-.11,1.6.55,2.23.46.43.44.67-.12.93-1.67.76-3.35,1.51-5.03,2.26-.36.16-.7.12-1.05-.07-1.95-1.08-3.4-2.68-4.63-4.49-.52-.76-.48-1.7-.62-2.58-.39-2.36-.52-4.76-.83-7.13-.29-2.21-1.34-4.15-2.43-6.05-1.43-2.5-2.39-5.16-2.36-8.07.02-2.22-.15-4.44-.05-6.66.16-3.74-1.11-6.96-3.56-9.75-.12-.13-.25-.25-.27-.44,3.04-5.59,6.92-10.52,11.62-14.8,2.54-2.32,5.26-4.4,8.2-6.2Z"/>
      <path class="cls-115" d="m9.27,46.55c-.08,2.84.74,5.45,2.06,7.93,1.09,2.04,2.16,4.08,2.7,6.36.31,1.28.16,2.58.36,3.86.26,1.69.48,3.39.8,5.07.23,1.24,1.13,2.11,1.88,3.05.88,1.1,1.9,2.06,3.08,2.84.28.19.27.31.02.5-.32.24-.69.33-1.08.34-1.05.02-2.09.16-3.11.44-.79.22-1.45,0-2.04-.51-.76-.66-1.42-1.41-1.84-2.33-.74-1.62-1.45-3.26-1.29-5.12.05-.63.02-1.26.02-1.89.09-.26.02-.53.04-.8-.03-.48.06-.97-.05-1.45.03-2.69-.86-5.11-2.21-7.39-1.39-2.35-2.45-4.83-2.9-7.54-.06-.38-.11-.76-.16-1.14-.14-1.05-.13-2.1,0-3.15,1.04-3.23,1.25-6.49.31-9.78-.21-.74-.49-1.46-.86-2.14.35-.9.76-1.78,1.25-2.61,1.85,1.85,2.85,4.06,2.76,6.71-.01.32.04.62.23.89.08.22.09.44.09.67,0,2.21,0,4.43,0,6.64,0,.19,0,.38-.08.56Z"/>
      <path class="cls-11" d="m30.65,6.49c2.06,2.87,3.7,5.97,5.08,9.21.57,1.34.31,2.2-.82,3.08-.07.05-.15.1-.23.12-.38.09-1.35-.39-1.55-.74-.48-.86-.73-1.81-1.13-2.71-1.15-2.61-2.69-4.98-4.37-7.26.96-.64,1.97-1.2,3.02-1.69Z"/>
      <path class="cls-90" d="m34.64,4.61c1.61,2,2.99,4.14,4.09,6.46.26.55.52,1.11.74,1.68.15.4.13.8-.36.94-.99.3-1.3,1.09-1.51,1.97-.07.28-.03.6-.33.84-.25-.32-.3-.7-.43-1.04-1.22-3.3-2.79-6.41-4.97-9.2-.07-.1-.12-.21-.18-.32.96-.48,1.92-.98,2.94-1.33Z"/>
      <path class="cls-115" d="m36.26,3.93c2.06,2.47,3.65,5.21,4.83,8.19.07.18.15.35.23.53.08.18.18.37,0,.53-.17.15-.37.17-.59.09-.28-.1-.49-.28-.58-.56-1.01-3.13-2.87-5.78-4.76-8.41.27-.18.58-.28.89-.37Z"/>
      <path class="cls-115" d="m103.94,24.7c-2.06,1.25-4.3,1.99-6.66,2.41-2.6.46-5.1,1.22-7.26,2.81-.3.22-.55.09-.65-.35-.12-.5-.06-1.01-.03-1.52-.02-.31.21-.47.41-.63,1.01-.81,2.14-1.4,3.41-1.67,2.99-.64,5.84-1.68,8.6-3.01.2-.1.39-.25.63-.22.57.69,1.1,1.4,1.56,2.17Z"/>
      <path class="cls-54" d="m102.38,22.53c-2.21,1.22-4.55,2.11-6.97,2.8-.74.21-1.48.39-2.23.56-1.27.28-2.38.89-3.4,1.67-.19.14-.31.32-.44.51-.3.3.05.74-.22,1.05-.11-.03-.18-.11-.2-.21-.14-.74-.42-1.45-.44-2.22.04-.12.07-.24.24-.21.15.17.32.28.54.1,1.55-1.28,3.41-1.79,5.33-2.13,2.45-.43,4.74-1.29,6.92-2.45.11-.06.22-.1.33-.15.23.2.4.44.55.7Z"/>
      <path class="cls-112" d="m55.17,2.12c0-.08,0-.16,0-.25,1.28-.41,2.61-.49,3.93-.36,3.94.4,7.84,1.07,11.68,2.06,1.69.43,3.21,1.27,4.76,2.03,0,.19-.11.12-.2.09-.87-.2-1.74-.4-2.61-.58-.35-.07-.71-.07-1.1.02,1.11.69,2.18,1.43,3.32,2.07,2.75,1.54,5.34,3.27,7.48,5.62.76.83,1.41,1.73,2.07,2.64.05.06.12.13.05.26-.39-.27-.69-.66-1.18-.86-.02.34.23.54.28.81-.04.16-.04.34-.28.33-.34-.2-.46-.57-.64-.88-.47-.84-1.04-1.62-1.59-2.41-.24-.34-.61-.53-.87-.83-1.47-1.66-3.19-2.96-5.15-4.01-1.73-.93-3.42-1.95-5-3.09-1.8-1.32-3.81-1.67-5.89-2-1.35-.21-2.68-.53-4.05-.61-1.19-.07-2.38-.09-3.57.02-.48.04-.97.15-1.44-.08Z"/>
      <path class="cls-51" d="m83.44,15.97c.07-.1.13-.21.2-.31,1.2,1.76,2.3,3.57,3.22,5.49.82,1.7,1.48,3.46,1.86,5.32-.1.05-.13.16-.15.26-.27-.09-.27-.35-.34-.55-.36-1.17-.75-2.33-1.15-3.48-.46-1.33-1.25-2.49-1.93-3.71-.49-.87-1-1.72-1.55-2.54-.09-.14-.23-.27-.16-.47Z"/>
      <path class="cls-33" d="m75.33,5.69c.07-.03.14-.06.2-.09.08.02.21.08.16.14-.1.1-.25.04-.36-.05Z"/>
      <path class="cls-6" d="m52.44,54.44c.21-.08.43-.15.63-.25,1.1-.52,1.25-1.58.3-2.33-.66-.52-1.37-.97-2.16-1.29-.91-.37-1.07-.71-.69-1.61.12-.29.26-.57.41-.85.59-1.04.45-2.05-.14-3.04-.49-.82-1.22-1.39-2-1.9-2.16-1.39-4.54-2.24-6.99-2.93-.79-.22-1.58-.44-2.39-.66.08-.21.16-.39.22-.56.21-.58.12-1.09-.3-1.56-.74-.83-1.68-1.3-2.74-1.56-.14-.02-.29-.01-.42-.1-.4-.3-.9-.48-1.17-.93-.16-.4-.62-.5-.85-.83-.04-.42.16-.78.34-1.13.16-.31.42-.33.7-.13.1.07.19.15.27.24,1.1,1.19,2.53,1.83,4.02,2.37.41.15.79-.04,1.19,0,.28.04.55.09.83.1.8.04,1.42-.34,1.76-1.06.26-.56.14-1.02-.42-1.46-1.02-.81-1.83-1.8-2.59-2.84-.42-.9-1.05-1.68-1.46-2.59-.38-.83-.7-1.68-.92-2.56-.14-.54-.13-1.07.18-1.57.28-.44.69-.43.92.04.24.47.38.98.59,1.46.52,1.17,1.25,2.22,1.91,3.31.29.48.78.74,1.19,1.09.38.43.75.88,1.15,1.29.55.55,1.22.87,2,.91.74.03,1.24-.32,1.45-1.03.29-.99.28-1.95-.13-2.92-.9-2.16-1.87-4.29-2.43-6.58-.13-.54-.29-1.08-.28-1.65.34-1.76,2.49-2.83,4.05-2.02.4.21.63.5.61.95-.07,1.61.4,3.11.9,4.61.29.86.6,1.72.76,2.62.17.89.64,1.15,1.48.8.62-.26,1.24-.49,1.92-.48,2.71.06,4.69,1.33,5.99,3.69.59,1.06,1.01,2.19,1.45,3.32.6,1.55,1.32,3.05,2.22,4.46,1.29,2.02,2.38,4.17,3.61,6.23.8,1.34,1.74,2.59,2.92,3.63.13.12.27.23.26.43-.13.37-.48.44-.78.55-1.44.54-2.89,1.08-4.29,1.72-1.68.77-3.3,1.64-4.61,2.97-.12.12-.25.25-.34.4-.26.42-.19.75.21,1.05.23.17.48.29.73.41.17.08.37.13.45.34.04.22-.04.41-.15.59-.39.64-.56,1.33-.51,2.07-.03.52-.3,1-.31,1.52,0,.21-.01.42.05.65.15-.26.15-.57.38-.76.38-.19.7-.46.98-.77.49-.56,1.12-.91,1.84-1.04.7-.13,1.39-.34,2.12-.27.47.5.41.68-.27.94,2.33.57,4.66.41,7.03-.16-.58,0-.64-.3-.5-.72.13-.43-.04-.92.28-1.31.24-.22.54-.2.83-.19.75.03,1.48-.03,2.2-.27.09-.01.18-.01.27,0,.57.12,1.15.03,1.73.05.76.03,1.05.2,1.28.92.55,1.71.87,3.45,1.04,5.24.15,1.62-.09,3.21-.21,4.81-.05.65-.05,1.3-.02,1.94.16,3.73-1.02,7.06-3.05,10.13-.42.64-.82,1.3-1.41,1.81-.35-.05-.33-.37-.41-.59-.38-1.13-.81-2.23-1.6-3.15-.18-.21-.38-.4-.71-.54.27.71.5,1.35.72,1.99.12.35.19.71.18,1.08,0,.22-.02.47-.3.56-.1-.07-.2-.13-.29-.2-.39-.06-.46.12-.43.49.18,2.14-.42,3.99-1.97,5.54-2.09,2.09-4.22,4.14-6.54,5.99-1.62,1.29-3.43,2.06-5.51,2.22-2.3.18-4.33-.45-6.2-1.79-3.19-2.31-6.09-4.94-8.78-7.8-2.16-2.31-4.05-4.83-5.52-7.64-.92-1.75-1.39-3.66-1.68-5.61-.09-.63.28-1.11.96-1.22.98-.16,1.97-.31,2.97-.38.82-.06,1.64-.07,2.46-.13,1.36-.09,2.22-.92,2.79-2.1.29-.62.5-1.27.72-1.92.61-1.77,1.16-3.56,1.81-5.32.18-.48.32-.98-.1-1.43-.38-.18-.81-.03-1.27-.17.23-.34.44-.67.66-.99.03-.02.05-.06.08-.06,1.05-.05,2.1-.32,3.15-.05.86.22,1.42.84,1.88,1.56.26.42.53.82.99,1.04.11.06.17.18.33.24-.07-.91-.35-1.73-.79-2.49-.19-.81-.57-1.54-.89-2.3-.1-.24-.18-.47.18-.56Z"/>
      <path class="cls-47" d="m83.44,15.97c1.41,2.2,2.88,4.37,3.82,6.84.49,1.29.88,2.61,1.31,3.91.18.79.37,1.59.55,2.38.22,1.19.43,2.38.65,3.57-.01,1.53.49,2.96.88,4.41.24.91.6,1.77,1.19,2.49,1.82,2.22,2.52,4.92,3.31,7.59.12.42.21,1-.08,1.26-.29.27-.77-.08-1.15-.25-.68-.3-1.25-.77-1.74-1.33-1.12-1.25-2.23-2.51-3.44-3.68-.15-.15-.31-.28-.47-.42-.1.05-.02.09,0,.14.79,1.44,1.89,2.63,3.02,3.8.69.71,1.27,1.53,1.72,2.43.55,1.12,1.18,2.18,2.09,3.06.05.04.07.11.17.26-1.42-.68-2.7-1.44-4.15-1.77-.98-.44-2.01-.52-3.06-.39-.14.02-.32-.02-.41.16-.03.26-.2.14-.33.12-.41-.08-.81-.16-1.22-.24-.25.02-.48-.05-.69-.18-.85-.49-1.69-.97-2.58-1.16,1.13.78,2.3,1.67,3.61,2.36.21.08.41.18.61.28.2.18.51.22.62.51.47.53,1.15.62,1.76.86.62.42,1.35.53,2.06.69.37.08.75.15,1.07.38-.51.29-1.54.23-2.91-.16-.28-.14-.56-.28-.85-.42-.83-.23-1.46-.87-2.31-1.11.06.13.14.27.22.42.07.15.22.29.11.49-.25.13-.4-.06-.54-.2-.48-.48-1-.93-1.4-1.49-.61-.83-1.44-1.44-2.27-2.01-1.35-.93-2.45-2.07-3.38-3.39-.18-.25-.39-.48-.61-.69-.06-.04-.04.09-.02.02,0-.03.03-.03.05,0,.35.35.57.8.87,1.18.75.97,1.61,1.84,2.26,2.89.84,1.37,1.65,2.76,2.48,4.14.1.16.08.33.12.5.02.2.25.3.24.51-.28.12-.47-.01-.66-.2-.13,0-.21-.09-.3-.17-.5-.09-.89-.39-1.28-.67-1.52-1.08-3.19-1.87-4.85-2.71-.13-.06-.26-.11-.4-.1-.89.04-1.55-.43-2.08-1.06-1.29-1.54-2.61-3.05-3.88-4.61-1.29-1.59-2.2-3.4-3.35-5.07-.14-.2-.24-.43-.3-.67-.05-.1-.11-.21-.1-.33-.02.15.07.26.1.4.35,1.15.83,2.26,1.32,3.35.07.16.17.31.15.49-.03.08-.07.14-.17.1-.86-1.2-1.32-2.58-1.78-3.96-.83-2.52-1.33-5.14-2.2-7.66-.48-1.39-1.03-2.75-1.77-4.03-1.53-2.63-3.76-4.12-6.85-4.23.13-.34.44-.29.7-.32,2.15-.21,3.97.48,5.52,1.98,1.01.98,1.81,2.08,2.34,3.37.07.17.14.35.36.53-.28-1.08-.75-2-1.25-2.91-.2-.36-.49-.68-.46-1.14.26-.15.38.08.51.21.73.69,1.28,1.52,1.85,2.33.42.6.83,1.2,1.26,1.79.43.89.85,1.79,1.23,2.7.04.19.14.35.2.52,0,0,0,.02.02.02-.01-.03-.02-.06-.03-.1-.11-.19-.14-.4-.24-.59-.34-.93-.72-1.84-1.24-2.69-1.35-2.47-3.01-4.71-4.98-6.72-.28-.29-.52-.61-.8-.9-.08-.08-.2-.17-.14-.31.07-.14.2-.19.35-.19.38,0,.72.11,1.06.26,1.7.71,2.91,1.98,3.86,3.51,1.26,2.04,2.35,4.17,3.52,6.26.16.29.34.57.51.85.14.27.26.56.41.82.02.03.03.06.05.07-.01-.05-.04-.09-.06-.13-.18-.27-.22-.62-.46-.87-1.05-1.66-1.76-3.5-2.71-5.21-.98-1.76-2.05-3.45-3.42-4.95-.91-1-2.02-1.52-3.35-1.64-.73-.06-1.44-.21-2.24-.51.35.29.64.48.88.73.16.17.39.34.16.62-.46.14-.77-.23-1.15-.31.41.24.85.48,1.28.73.38.24.67.59,1,.9.08.08.2.17.05.29-.17.08-.34.03-.51,0-.92-.16-1.84-.11-2.76,0-.53.06-1.03.23-1.47.53-.17.11-.38.22-.33.48-1.29.38-2.64.54-3.97,1.24.29-.95.76-1.58,1.5-1.99.88-.49,1.85-.62,2.84-.61.57,0,1.08-.16,1.74-.38-1.19-.48-2.28-.14-3.34-.17-1.07-.03-2.17-.05-3.19.67-.05-.83.28-1.34.84-1.73.66-.46,1.45-.6,2.19-.85.42-.15.85-.16,1.26-.09-.33-.13-.73.04-1.06-.21-.82-.05-1.59.13-2.39.43-.04-.38.13-.66.3-.93.55-.87,1.36-1.45,2.26-1.89.85-.42,1.73-.75,2.62-1.06.16-.06.31-.12.46-.26h-.72c0-.17.15-.18.26-.19.89-.09,1.71.21,2.58.46-.94.41-1.92.68-2.81,1.12.96-.14,1.94-.29,2.94-.24,1.41.08,2.73.43,3.86,1.32.47.37.9.78,1.1,1.17-.52-.69-1.06-1.56-1.93-2.17-.11-.08-.23-.16-.33-.26-.06-.06-.14-.13-.09-.22.04-.08.14-.1.23-.09.31.03.62.07.92.2,1.29.58,2.46,1.33,3.53,2.25.24.21.49.41.66.68.82,1.25,1.75,2.41,2.68,3.57.09.11.17.23.25.42-.05-.44-.17-.8-.38-1.1-1.3-1.88-2.48-3.86-4.12-5.49-.41-.41-.86-.77-1.33-1.11-.61-.44-1.21-.87-1.7-1.47-.5-.61-1.25-.8-1.99-.97-1.95-.47-3.75-.15-5.42,1,.35-.06.67-.23,1.01-.23.26,0,.53-.06.72.2.02.1,0,.15-.11.14-.94,0-1.76.42-2.56.84-1.54.82-2.84,1.98-4.2,3.04-.13.1-.23.26-.48.28.02-1.7-.11-3.39.06-5.08.04-.43.22-.82.45-1.16.6-.87,1.07-1.8,1.55-2.74.94-1.8,2.24-3.29,3.91-4.45.09-.19.26-.27.44-.35.71-.31,1.42-.62,2.24-.86,0,0-.12-.07-.08-.02.02.02,0,.04-.03.05-.43.12-.87.25-1.31.33-.15.03-.36.06-.41-.11-.05-.18.16-.26.3-.31.24-.09.49-.18.74-.24.09-.03.18-.07.29-.04-.12-.04-.23.02-.34.04-1.26.32-2.37.88-3.24,1.89-.13.15-.27.33-.5.35-.94.89-1.55,2.02-2.17,3.13-.94,1.69-1.84,3.39-2.67,5.25-.55-.92-.95-1.77-.57-2.8.36-.98.8-1.93,1.29-2.85.04-.04.08-.08.08-.14-.05.02-.08.06-.12.1-.74.68-1.15,1.57-1.59,2.44-.31.62-.56,1.28-.85,1.92-.07.17-.12.36-.33.51-.1-3.3.55-6.33,2.49-9.03,1.01-1.41,2.47-1.93,4.02-2.36.38-.11.77-.2,1.16-.3.72.04,1.43-.08,2.15-.12,2.39-.12,4.74.2,7.08.67.87.17,1.76.25,2.63.46,1.02.24,1.9.72,2.77,1.33,1.17.82,2.44,1.51,3.66,2.26,1.24.76,2.47,1.52,3.74,2.23,1.01.56,1.71,1.49,2.56,2.23,1.46,1.27,2.53,2.83,3.45,4.51.06.1.15.19.23.28Z"/>
      <path class="cls-92" d="m58.43,99.01c-3.68-.19-7.33-.51-10.88-1.59-1.92-.58-3.73-1.39-5.47-2.39-.37-.21-.5-.42-.34-.84.16-.43.19-.88.14-1.34-.06-.57-.09-1.15-.02-1.73.14-1.14-.21-1.81-1.25-2.35-.75-.38-1.46-.84-2.09-1.39-1.03-.89-1.68-1.99-1.64-3.38.04-1.35-.19-2.65-.57-3.93-.02-.08-.03-.17-.06-.36,1.02.9,1.95,1.73,2.89,2.56,1.65,1.46,3.15,3.09,4.7,4.65,2.8,2.81,5.9,5.27,9.17,7.51,1.04.71,2.21,1.22,3.5,1.35,1.15.12,2.26-.18,3.39-.31,2.9-.34,5-2.05,6.93-4.04,1.56-1.61,2.89-3.43,4.49-5,.71-.7,1.45-1.37,2.17-2.06,1.37-1.3,2.65-2.7,3.9-4.12.2-.23.37-.51.69-.67-.23,1.37-.22,2.71-.26,4.05-.07,2.56,0,5.11.26,7.66.08.74-.24,1.29-.79,1.73-1.08.88-2.23,1.63-3.46,2.28-2.68,1.42-5.39,2.77-8.42,3.31-1.12.2-2.25.34-3.39.39-.03,0-.06,0-.09.01-1.13.02-2.26.02-3.39,0-.03,0-.06,0-.09-.01Z"/>
      <path class="cls-120" d="m105.81,83.97c-1.17-.33-2.35-.64-3.51-.99-1.65-.49-3.32-.6-4.99-.26-1.67.34-3.34.7-4.86,1.52-1.68.91-3.13,2.07-4.16,3.71-.18.28-.32.59-.64.75-.37-1.21-.76-2.4-1.53-3.43-.4-.54-.84-1.05-1.39-1.42-.87-.58-1.6-1.3-2.33-2.03-.42-.42-.88-.8-1.4-1.1-.62-.35-.61-.56.03-.91,1.49-.83,3.07-1.45,4.73-1.84,4.11-.96,8.22-.96,12.31.08.78.2,1.58.32,2.37.43.18.02.34.04.47.19,1.45,1.62,3.17,2.97,4.5,4.7.15.19.28.4.42.6Z"/>
      <path class="cls-17" d="m39.42,40.24c1.58.24,3.09.73,4.58,1.29,1,.37,2,.74,2.98,1.15,1.3.54,2.38,1.39,3.21,2.53.66.9.82,1.84.17,2.82-.2.3-.24.66-.31.99-.1.48-.35.75-.87.69-.35.11-.6-.13-.88-.24-1.94-.75-3.87-1.54-5.92-1.98-.17-.06-.35-.07-.53-.07-.14,0-.28-.01-.41-.04-.39-.1-.6.05-.66.43.48.91,1.17,1.64,1.95,2.3.28.24.54.49.77.78-.02.18-.16.17-.27.16-.45-.05-.91-.02-1.34-.2-.44-.5-.71-1.11-1.16-1.6-.15-.17-.27-.36-.43-.53-.35-.35-.75-.49-1.24-.35-1.18.35-2.3.83-3.32,1.53-.56.38-1.12.77-1.79.96-.96-.21-1.59-1.04-1.61-2.17-.02-1.03.03-2.06-.02-3.09-.06-1.17-.02-2.34.13-3.5.18-1.46.37-1.57,1.81-1.35.95.15,1.88.37,2.86.19.56-.1,1.09-.26,1.58-.53.23-.13.45-.27.73-.19Z"/>
      <path class="cls-120" d="m41.8,50.75c.57.04,1.12.21,1.7.14.88.64,1.88.98,2.9,1.3.72.22,1.44.45,2.15.69.32.11.73.17.55.7-.18.51-.4.62-.97.45-.35-.1-.71-.2-1.06-.29-.21-.05-.43-.09-.73-.02.66.46,1.47.55,2.02,1.27-3.67-.62-7.2-1.59-10.81-.72.22.17.33.22.73.24.21.01.42,0,.63.02.14,0,.32.01.36.16.05.16-.12.24-.23.31-.31.19-.63.37-.95.56-.24.14-.46.32-.59.58-.14.29.12.15.21.19.17.08.22.19.12.36-.55.21-1.11.42-1.67.61-1.04.36-1.37.86-1.44,1.94-.19,2.9.35,5.68,1.3,8.39.07.19.18.39.04.6-.68.17-1.36.33-2.03.51-.37.1-.55-.01-.65-.38-.32-1.12-.49-2.26-.57-3.41-.14-2.1-.54-4.16-.7-6.26-.12-1.59-.28-3.17-.35-4.76-.19-4.24-.82-8.42-1.66-12.58-.3-1.49-.56-2.99-.66-4.54.44.1.7.42.99.69,1.49,1.34,3.12,2.43,5.14,2.79.65.12,1.29.04,1.93-.08.64-.12,1.28-.17,1.92.03-.2.03-.35.15-.52.24-1.01.59-2.08.81-3.26.65-.74-.11-1.48-.21-2.22-.34-.34-.06-.57.07-.66.43-.15.59-.27,1.19-.28,1.8-.02,1.92-.02,3.83,0,5.75,0,1.03.65,1.82,1.58,2,.15.32.43.35.75.36,1.42.04,2.83-.15,4.24-.26.78-.06,1.57-.14,2.35-.21.14-.01.28,0,.4.09Z"/>
      <path class="cls-17" d="m76.93,100.37c-.59.27-1.23.19-1.85.24-2.32.18-4.65.37-6.98.37-.71-.13-1.42,0-2.13,0-.87,0-1.73-.03-2.6-.01-.77-.05-1.53-.08-2.3-.14-.7-.06-1.4-.01-2.09.11-1.11.21-2.19,0-3.27-.23-1.15-.25-2.29-.26-3.42.04-.8.21-1.58.22-2.36-.1-.3-.12-.63-.22-.97-.2-.07.05-.13.06-.19-.02-.14-.02-.27-.07-.41-.07-2.48.09-4.94-.28-7.4-.47-1.01.03-1.99-.17-2.94-.5-.21-.03-.39-.13-.53-.29-.65-.75-1.18-1.56-1.33-2.57-.08-.52-.09-1.05-.04-1.57.08-.77.55-1.16,1.33-1.19.64-.02,1.19.21,1.71.55,1.57,1.01,3.11,2.07,4.81,2.87,2.16,1.05,4.47,1.61,6.82,2.03,3.52.64,7.07.6,10.62.51,1.73-.04,3.45-.27,5.16-.54,2.55-.41,4.83-1.53,7.08-2.72,1.69-.89,3.28-1.95,4.81-3.1.35-.26.73-.56,1.2-.33.48.23.6.71.65,1.19.06.6-.04,1.19-.27,1.75-.68,1.71-1.81,3.1-3.12,4.36Z"/>
      <path class="cls-10" d="m61.18,57.71c-.1-.78.09-1.5.51-2.17.11-.18.18-.37.21-.58.14-.17.35-.16.53-.2.43-.1.84-.25,1.22-.47,2.32-1.29,4.8-2.19,7.28-3.1.77-.29,1.57-.5,2.34-.79.89-.34,1.72-.2,2.51.27.87.52,1.73,1.07,2.56,1.64.81.56,1.64,1.06,2.55,1.43-.61-.4-1.24-.79-1.77-1.31-.08-.08-.22-.17-.16-.3.07-.14.23-.14.37-.12.27.04.5.17.71.32.92.68,1.96,1.14,2.95,1.69.18.1.36.22.53.34.08.06.14.16,0,.25-.27.16-.15.44-.19.67-.21,1.16-.19,2.33-.2,3.51-.03,3.07-.67,6.04-1.37,9.01-.4,1.67-.64,3.37-1,5.04-.52,2.46-1.86,4.51-3.41,6.43-.51.62-1.04,1.22-1.57,1.84-.45-.07-.56-.43-.29-.95,1.49-1.87,2.74-3.88,3.53-6.15.49-1.42.83-2.88.86-4.39.03-1.45-.05-2.9.11-4.35.1-.9.23-1.8.2-2.71-.09-2.2-.46-4.36-1.16-6.46-.15-.44-.45-.62-.91-.64-.64-.03-1.29.13-1.92-.09.18-.16.39-.26.19-.58-.34-.55-.32-.57.25-.89-2.14-.83-11.3,1.08-12.93,2.94.51-.02.91-.22,1.33-.38.28-.11.56-.22.86-.16.42.07.55.3.43.74-1.08.2-2.22.18-3.2.8-.33.21-.58.5-.84.78-.23.25-.48.45-.82.51-.2-.31-.04-.6.03-.91.06-.26.26-.49.21-.78-.25-.03-.3.28-.52.25Z"/>
      <path class="cls-17" d="m36.05,68.23c-.5-1.45-.96-2.91-1.21-4.43-.13-.79-.26-1.58-.28-2.38-.01-.78-.06-1.55,0-2.34.07-.91.44-1.53,1.3-1.82.65-.22,1.26-.61,1.98-.62.08-.08.18-.1.29-.08.24.09.47.19.68.36.45.59,1.01.96,1.78.95.48.16.83.59,1.37.6.07,0,.14.02.2-.02.98.27,1.97.18,2.97.15.59-.02,1.19-.06,1.78-.06.55,0,.66.14.49.68-.67,2.08-1.36,4.15-2.04,6.22-.04.12-.07.23-.11.35-.46,1.52-1.36,2.2-2.97,2.2-1.59,0-3.18-.04-4.77.11-.49.05-.97.09-1.46.13Z"/>
      <path class="cls-120" d="m25.76,90.08c.05-2.42-1.18-4.34-2.49-6.2-1.53-2.16-3.78-3.15-6.32-3.6-1.11-.2-2.24-.29-3.36-.41-1.49-.16-2.9.3-4.33.56-.32.06-.63.2-.96.06.8-.72,1.77-1.12,2.76-1.47,2.87-1.01,5.84-1.54,8.85-1.89,1.02-.12,2.03-.36,3.07-.41,3.05-.15,5.74.88,8.21,2.58.74.51,1.48,1.03,2.39,1.51-1.82.44-3.18,1.49-4.62,2.42-1.65,1.06-2.52,2.56-2.79,4.47-.11.79-.27,1.58-.41,2.37Z"/>
      <path class="cls-66" d="m70.52,47.61c-.01-.33-.33-.38-.51-.56-1.21-1.19-2.2-2.53-3.03-4-1.27-2.25-2.54-4.51-3.89-6.71-.92-1.5-1.49-3.16-2.14-4.78-.53-1.3-1.1-2.58-2.07-3.62-.95-1.01-2.14-1.61-3.49-1.89-1.06-.22-2.07-.12-3.06.35-.93.44-1.49.12-1.69-.9-.31-1.56-.98-3.02-1.36-4.56-.2-.82-.32-1.64-.3-2.48.02-.79-.3-1.13-1.1-1.24-1.51-.21-2.63.44-3.25,1.85-.04.09-.12.17-.18.25-.22-.4-.28-.86-.41-1.29-.32-1.13-.61-2.26-1.12-3.33-.18-.37-.06-.54.28-.68,1-.41,2-.84,3-1.25.51-.21.68-.1.69.45.02.83.07,1.64.58,2.43.3-.81.59-1.57.91-2.42.78,1.5,1.57,2.86,1.36,4.58-.13,1.06-.22,2.15,0,3.33.6-.83.97-1.77,1.92-2.24.08.29-.07.5-.17.71-.44.99-.63,2.03-.72,3.1-.04.5.05.56.53.41.07-.02.13-.05.2-.06.15-.04.32-.15.44-.02.16.17-.02.32-.1.46-.46.74-.64,1.55-.57,2.41,0,.11-.04.26.1.33.14.07.28.03.38-.09,1.51-1.74,3.53-1.63,5.54-1.52,2.03.1,3.46,1.18,4.51,2.85,1.78,2.81,2.87,5.91,3.76,9.08.51,1.82,1.12,3.61,1.92,5.32.44.95,1.15,1.75,1.64,2.67.58.82,1.13,1.66,1.53,2.59.07.15.15.37-.13.45Z"/>
      <path class="cls-66" d="m48.12,58.23c.46.15.5.51.39.89-.19.64-.39,1.27-.62,1.89-.7,1.86-1.22,3.79-1.94,5.65-.57,1.45-1.87,2.6-3.6,2.52-1.59-.08-3.16.25-4.73.43-.79.09-1.05.48-.94,1.25.38,2.7,1.34,5.18,2.82,7.48,2.18,3.4,4.91,6.31,7.83,9.06,1.73,1.62,3.59,3.1,5.52,4.48,1.31.94,2.76,1.44,4.38,1.57,2.95.23,5.39-.86,7.59-2.74,2.02-1.73,3.95-3.55,5.83-5.42,1.58-1.57,2.17-3.45,1.88-5.63-.02-.15-.06-.35.1-.43.18-.1.36,0,.51.13-.21.12-.1.32-.08.47.12,1.55-.16,3.03-.67,4.48-.08.22-.17.42-.35.57-1.53,1.29-2.83,2.81-4.18,4.28-1.25,1.35-2.53,2.67-4.11,3.65-3.07,1.91-6.27,1.96-9.55.65-3.25-1.3-6.02-3.33-8.54-5.72-1.02-.97-1.97-1.99-2.89-3.05-1.12-1.28-2.32-2.48-3.61-3.58-2.73-2.33-4.24-5.38-4.99-8.84-.12-.56-.24-1.13-.32-1.7-.14-1.05.01-1.26,1.04-1.49,1.56-.35,3.14-.48,4.74-.54,1.05-.03,2.1.03,3.15-.08,1.49-.16,2.46-.99,2.92-2.36.83-2.47,1.6-4.96,2.4-7.44.04-.13.03-.28.04-.41Z"/>
      <path class="cls-11" d="m38.58,17.06c-.04-.41.02-.8.1-1.2.14-.76.56-1.27,1.34-1.43.86-.19,1.59.06,2.04.73.52.78.86,1.65,1.07,2.55.7,3.01,1.92,5.84,3.02,8.71.34.9.72,1.79.61,2.79-.02.19-.04.38-.09.57-.28.93-1.11,1.21-1.89.62-.45-.34-.82-.76-1.15-1.22-2.25-3.25-3.98-6.74-4.89-10.62-.06-.27-.13-.55-.16-.82-.03-.22,0-.45,0-.68Z"/>
      <path class="cls-11" d="m38.05,27.55c.84,1.71,1.89,3.26,3.29,4.57.38.36.65.81,1.07,1.14.24.18.24.51.07.77-.27.42-.64.71-1.18.62-.7-.12-1.34-.41-1.92-.81-3.14-2.14-5.37-5.03-6.91-8.47-.38-.85-.77-1.69-.98-2.6-.29-1.28.69-2.93,1.94-3.28.54-.15.84.18,1.03.6.31.7.56,1.43.85,2.15.26.65.51,1.3.79,1.94.06.15.11.34.31.4.16,0,.25.12.31.24.44.87.95,1.69,1.34,2.58.02.05.02.1-.01.15Z"/>
      <path class="cls-120" d="m22,76.11c.33-.35.61-.52.92-.63,2.31-.79,4.43-1.99,6.66-2.95.92-.39,1.83-.78,2.78-1.09.52-.17.72-.07.84.46.53,2.36,1.37,4.62,2.12,6.92.01.03.03.06.04.1.05.27.26.59.03.79-.19.17-.45-.08-.67-.16-.92-.34-1.79-.8-2.63-1.3-2.86-1.71-5.93-2.52-9.28-2.18-.22.02-.45.02-.82.04Z"/>
      <path class="cls-120" d="m91.41,76.16c-2.14.16-4.12.36-6.03,1-2.01.67-4,1.36-6,2.05-.16.06-.33.17-.48,0-.15-.16-.04-.33.02-.49.27-.67.67-1.26,1.04-1.88.93-1.54,1.47-3.24,1.91-4.97.19-.76.25-.8.94-.47,1.45.69,2.93,1.32,4.42,1.92,1.56.63,2.85,1.66,4.18,2.86Z"/>
      <path class="cls-11" d="m35,34.88c.42.29.84.59,1.26.88.06.09.15.17.2.28.53.37,1.15.59,1.65,1,.19.16.4.29.58.45.31.28.43.64.28,1.05-.16.41-.5.54-.92.57-2.85.18-5.33-.72-7.55-2.47-.9-.7-1.75-1.46-2.51-2.31-.82-.91-1.2-1.96-.84-3.19.13-.43.38-.79.77-1.02.58-.35,1.18-.27,1.63.33,1,1.36,2.29,2.4,3.56,3.47.56.47,1.22.73,1.89.96Z"/>
      <path class="cls-96" d="m57.72,14.72c-.71-.34-1.35.1-2.05.14.46-.51,1.05-.83,1.67-1.06,1.89-.7,3.76-.57,5.57.31.15.07.32.17.42.3.6.82,1.46,1.34,2.25,1.93,1,.75,1.83,1.68,2.56,2.68.81,1.11,1.59,2.25,2.36,3.39.33.49.62,1.01.52,1.72-.88-1.15-1.79-2.2-2.54-3.36-.89-1.39-2.17-2.3-3.54-3.11-.67-.39-1.35-.82-2.29-.82,1.2.79,2.04,1.79,2.61,3-2.17-2.86-4.84-3.05-8.5-2.43.29-.4,1.87-1.06,3.02-1.27-1.37-.4-2.07-.47-2.7-.31-.47.09-.93.29-1.54.19.65-.58,1.29-.95,2.05-1.12.07-.05.18-.06.13-.19Z"/>
      <path class="cls-10" d="m40.68,35.4c-.81.5-1.52.01-2.22-.27-1.19-.47-2.27-1.13-3.15-2.08-.45-.48-.61-.42-.84.21-.09.26-.21.52-.31.77-1.85-1.12-3.24-2.69-4.38-4.51-.07-.12-.14-.26-.14-.39-.04-1.73.32-3.35,1.42-4.84,1.94,4.86,5.03,8.63,9.62,11.1Z"/>
      <path class="cls-10" d="m30.06,66c-.06.31-.2.37-.47.19-.54-.35-.97-.81-1.3-1.35-1.25-2.02-2.23-4.16-3.01-6.4-.07-.19-.11-.4.06-.54.21-.17.35.07.48.17.38.3.61.72.76,1.17.15.5.28,1.01.43,1.51.12.39.29.74.69.96-.37-1.85-.55-3.7-.63-5.54-.05-1.18.09-2.37.03-3.56-.03-.51.11-1.01.27-1.49.19-.56.6-.75,1.11-.45.69.41,1.35.88,2.02,1.33.19.12.24.28.12.49-.11.18-.24.3-.47.24-.07-.02-.13-.05-.2-.07-1.11-.42-1.55-.23-1.99.87-.69,1.74-.51,3.51-.04,5.26.28,1.07.72,2.08,1.41,2.97.23.29.45.6.77.78,1.36.79,1.85,2.08,2.06,3.53,0,.05.02.11.02.16-.04.27.34.64-.13.81-.36.13-.84-.19-1.01-.62.08-.17.02-.34.02-.51,0-.32-.17-.48-.47-.52-.32-.04-.43.16-.44.44,0,.05-.03.1-.07.14Z"/>
      <path class="cls-124" d="m70.52,47.61c.18-.44-.12-.75-.3-1.08-.36-.66-.84-1.25-1.09-1.97.15-.04.25.1.43.14-.07-.18-.06-.35-.21-.47-.08-.32-.37-.54-.39-.88-.58-1.17-1.08-2.36-1.5-3.6-.03-.1,0-.16,0-.24-.04-.11,0-.13.1-.1.94,1.54,1.78,3.15,2.85,4.6,1.57,2.14,3.27,4.19,5.13,6.1.45.46.99.7,1.65.67.15,0,.32.03.45.1,1.63.89,3.34,1.62,4.84,2.74.38.28.79.51,1.19.76-.01.11-.02.21-.15.25.08-.2-.1-.24-.21-.29-1.25-.62-2.49-1.27-3.65-2.06-.18-.12-.4-.23-.68-.15.71.73,1.58,1.2,2.35,1.83-1.01-.26-1.91-.75-2.76-1.33-1.01-.69-2.04-1.36-3.09-1.99-.55-.33-1.19-.42-1.82-.22-2.87.92-5.69,1.95-8.43,3.21-.56.25-1.09.55-1.63.84-.53.28-1.09.48-1.7.49-.41-.19-.85-.32-1.22-.6-.48-.36-.55-.72-.22-1.22.29-.44.7-.78,1.1-1.11,1.2-.98,2.55-1.71,3.96-2.33,1.31-.58,2.62-1.15,3.98-1.59.36-.12.73-.25,1.02-.51Z"/>
      <path class="cls-47" d="m49.06,50.03c.44.2.87.44,1.33.61.99.35,1.83.95,2.66,1.55.63.45.6,1.12-.07,1.52-.43.26-.89.3-1.36.14-.52-.17-1-.42-1.47-.68-1.28-.71-2.61-1.25-4.04-1.57-1.36-.3-2.49-.98-3.39-2.06-.42-.51-.93-.94-1.35-1.47-.3-.38-.15-.46.23-.46.35-.18.69-.03,1.01.05,2.05.5,4.05,1.2,5.98,2.06.17.08.36.13.46.33Z"/>
      <path class="cls-66" d="m38.05,27.55c-.43-.79-.86-1.59-1.3-2.38-.11-.2-.23-.39-.34-.59-.24-1.22-.66-2.39-1.11-3.55-.29-.75-.23-1.31.46-1.83.61-.46,1.15-1.02,1.71-1.55.18-.17.28-.24.37.08,1.06,4.09,2.67,7.95,4.83,11.57-.94-.26-1.32-1.07-1.8-1.8-.79-1.22-1.49-2.49-1.94-3.88-.06-.19-.12-.41-.4-.42-.28,0-.32.23-.42.4-.24.41-.22.84-.11,1.27.39,1.56,1.02,3.01,1.92,4.34.19.28.36.56.34.91-.62-.57-1.1-1.26-1.57-1.95-.17-.25-.3-.56-.64-.65Z"/>
      <path class="cls-40" d="m76.93,100.37c.77-1.11,1.78-2.06,2.45-3.25.48-.86.87-1.75.81-2.77,0-.15-.04-.31-.08-.46-.25-.83-.72-1.01-1.4-.48-.84.65-1.71,1.27-2.61,1.84-2.29,1.45-4.68,2.71-7.26,3.59-1.4.48-2.88.63-4.35.82-2.64.35-5.29.35-7.94.28-3.33-.09-6.63-.46-9.82-1.48-.96-.31-1.92-.61-2.8-1.13.02-.14.04-.28.24-.23,1.16.61,2.42.92,3.67,1.25,1.72.45,3.45.91,5.23,1.09.17.09.37-.02.54.08.06,0,.13,0,.19.01.24.12.52-.02.76.09.17,0,.33.01.5.02.66.11,1.32,0,1.97,0,1.2-.01,2.4-.02,3.6.05.17,0,.35.04.51-.04,2.62-.17,5.22-.48,7.72-1.35,3.12-1.08,5.98-2.61,8.61-4.61.76-.58,1.24-1.37,1.76-2.13.19-.29.35-.64.79-.56.44.08.75.35.85.77.57,2.53-.35,7.05-3.57,8.48-.13.06-.26.09-.39.14Z"/>
      <path class="cls-66" d="m87.26,58.74c-.38.26-.32.51,0,.77-.3,2.72-1.19,5.27-2.25,7.77-.19.44-.48.81-.92,1.04-.72.38-1.51-.06-1.52-.89-.02-.75.22-1.45.53-2.12.47-1.02,1.13-1.93,1.75-2.86.25-.37.44-.74.54-1.18.18-.79.52-1.52.89-2.23.49-.96.82-1.96.95-3.03.18-.03.19.16.3.22.12.13.3.22.32.42.08.77-.32,1.41-.59,2.08Z"/>
      <path class="cls-11" d="m31.47,99.73c-1.15-.19-2.16-.1-3.17,0-.53.06-.82-.15-.94-.67-.47-2.02-.7-4.06-.68-6.13,0-.06.03-.13.1-.22,1.29,2.48,3.02,4.65,4.69,7.01Z"/>
      <path class="cls-40" d="m44.17,97.09c-.08.08-.16.15-.24.23-1.04-.38-1.94-1.02-2.88-1.58-.72-.43-1.42-.9-2.11-1.37-.55-.38-1.16-.47-1.8-.41-.45.04-.85.52-.87,1.1-.07,1.32.08,2.59,1.06,3.61.12.13.2.29.18.48-.79-.26-1.21-.89-1.44-1.62-.54-1.69-.84-3.42-.78-5.21.01-.36.11-.69.35-.96.56-.63,1.04-.6,1.49.11.86,1.4,2.06,2.46,3.4,3.37,1.18.81,2.42,1.53,3.65,2.26Z"/>
      <path class="cls-66" d="m53.62,59.68c-.53-.13-.78-.54-1.04-.97-.51-.85-1.17-1.52-2.19-1.72-.45-.09-.87.07-1.3.07-.52.01-1.05,0-1.58,0-.01-.12-.03-.24-.03-.37,0-.59.17-.77.76-.71.68.08,1.35.2,2.02.31.1.02.21.02.4.03-.5-.66-1.35-.67-1.88-1.24.72-.27,1.28.32,2.01.27-.36-.28-.62-.53-.97-.65-.69-.23-.52-.68-.22-1.17.15-.24.31-.11.48,0,.63.39,1.34.58,2.01.89.1.05.24.01.36.01-.2.13-.18.28-.08.48.35.77.75,1.52.91,2.37-.22.16-.25.35-.15.59.15.35.3.7.44,1.06.09.23.24.48.06.74Z"/>
      <path class="cls-11" d="m81.11,100.05c1.79-1.35,3.35-2.88,4.84-4.48.2-.22.39-.45.59-.67.07-.08.16-.15.27-.08.12.07.08.18.05.28-.49,1.62-.98,3.24-1.47,4.86-.05.15-.14.3-.33.3-1.27-.01-2.55.22-3.81-.11-.03,0-.05-.03-.15-.1Z"/>
      <path class="cls-96" d="m55.73,23.66c-.12-.06-.52.06-.15-.29.62-.57,1.36-.78,2.18-.89,1.05-.14,2.07-.02,3.1.11.2-.07.34.05.47.16.77.68,1.42,1.48,2.14,2.21.04.04.03.1.01.15.25.81.78,1.48,1.12,2.24.3.68.6,1.36.74,2.15-.44-.11-.56-.45-.67-.76-.56-1.45-1.49-2.63-2.64-3.65-1.62-1.43-3.5-1.95-5.62-1.55-.06.01-.12.06-.18.09-.17,0-.33.02-.5.03Z"/>
      <path class="cls-90" d="m28.9,70.78c-.08-.69-.3-1.31-.83-1.81-.24-.23-.14-.6-.07-.91.22-.97.12-1.83-.73-2.5-.45-.35-.48-.85-.22-1.71.18.11.24.29.34.45.45.77.97,1.49,1.67,2.08.47.4.85.88,1.1,1.45.18.42.25.84-.04,1.24-.07.1-.1.21-.1.34-.03.78-.26,1.08-1.1,1.35Z"/>
      <path class="cls-11" d="m26.6,57.25c-.24.44-.63.44-.98.25-.79-.42-1.48-.89-1.61-1.94-.15-1.23-.2-2.45,0-3.83.5.84.92,1.57,1.35,2.29.67.63,1.13,1.35,1.06,2.32-.02.32.13.61.19.91Z"/>
      <path class="cls-66" d="m27.85,48.04c1.56.21,2.53,1.33,2.38,2.82-.46-.29-.89-.57-1.34-.84-1.49-.87-2.12-.62-2.57,1.05-.16.59-.24,1.2-.18,1.82.02.19.06.42-.19.48-.25.07-.33-.15-.41-.32-.24-.49-.47-.98-.43-1.55.13-.49.29-.97.49-1.44.38-.89.96-1.21,1.92-1.06.3.05.61.07.93.15-.13-.44-.62-.64-.6-1.12Z"/>
      <path class="cls-1" d="m75.38,81.54c-.7,1.05-1.61,1.91-2.54,2.93.13-1.13.47-2.08.56-3.07.01-.17.06-.35.04-.52-.05-.36.09-.52.44-.52.16-.8-.01-1.58-.14-2.37-.03-.21-.17-.52.07-.62.27-.11.4.21.52.4.68,1.07.86,2.3,1.11,3.51.02.08-.03.17-.05.25Z"/>
      <path class="cls-55" d="m84.38,54.25c-.59-1.01-1.22-2-1.78-3.03-.74-1.36-1.62-2.61-2.65-3.76-.58-.65-1.03-1.39-1.56-2.22.41.21.61.5.83.74.27.29.55.6.75.94.51.84,1.23,1.47,2.01,2.03,1.3.93,2.53,1.92,3.53,3.18.35.44.72.9,1.28,1.12.13.08.25.16.4.19.05.03.09.06.12.1.1.15.22.3.16.48-.09.23-.31.02-.46.09-.21-.39-.42-.79-.97-.75-.18-.33-.47-.55-.72-.82-.19-.21-.36-.19-.59-.04-.68.44-.69.43-.26,1.14.05.09.12.17.12.28-.07.11-.15.21-.22.32Z"/>
      <path class="cls-62" d="m45.19,57.97c-1.01.12-1.99.05-2.85-.57-.38-.44-.57-.96-.53-1.54.03-.38.19-.67.63-.71.42-.04.67.14.78.59.07.27.12.55.35.74.38.32.88.3,1.23-.05.11-.11.19-.25.29-.37.19-.26.45-.32.74-.21.3.1.46.33.43.64-.07.7-.43,1.2-1.07,1.48Z"/>
      <path class="cls-90" d="m28.66,72.22c.14-.6.32-.95.89-1,.62-.05,1.12-.38,1.53-.83.53-.57.54-1.02.04-1.61-.2-.23-.32-.46-.18-.76.14-.29.38-.36.69-.36.82.01.82,0,.99.79.07.34.13.69.18,1.03.11.68-.05,1.05-.66,1.31-1.12.48-2.26.92-3.49,1.42Z"/>
      <path class="cls-11" d="m45.19,57.97c.25-.29.56-.53.75-.87.11-.18.19-.37.21-.58.03-.31-.09-.5-.39-.58-.27-.07-.45,0-.61.25-.35.59-.72.77-1.23.64-.55-.14-.81-.51-.84-1.06-.02-.38-.24-.49-.59-.51-.4-.02-.51.21-.56.54-.09.59.25,1.07.4,1.6-.87-.43-1.22-1.29-.87-2.13.14-.32.36-.51.73-.48,1.36.14,2.7.39,4,.79.71.22.92.7.63,1.38-.32.74-.91,1.11-1.63,1Z"/>
      <path class="cls-40" d="m39.28,92.52c-1.19-.53-1.92-1.35-1.77-2.76.05-.48-.06-.97-.09-1.46-.01-.22-.02-.46.14-.73.75.87,1.66,1.53,2.5,2.26-.05.18-.2.25-.35.31-.08.03-.17.04-.26.05-.28.01-.58.01-.69.35-.11.35-.07.69.16.99.16.2.42.32.48.6.02.15.01.29-.13.39Z"/>
      <path class="cls-62" d="m55.23,110.03c-.89,0-1.64-.22-2.38-.48-.34-.12-.29-.24-.08-.46.82-.83,2.41-.95,3.62-.27.33.19.84.41.8.74-.03.29-.61.27-.96.36-.35.09-.72.15-1,.12Z"/>
      <path class="cls-6" d="m27.85,48.04c.22.41.66.68.78,1.2-.4.11-.76-.05-1.12-.1-.94-.13-1.46.12-1.82,1-.12.31-.21.63-.32.94-.06.16-.07.35-.27.42-.25-.99-.15-1.94.32-2.84.36-.69.95-.93,1.82-.77.2.04.4.1.61.15Z"/>
      <path class="cls-62" d="m51.68,101.48c1.15-.5,2.28-.46,3.4-.34.47.05.92.19,1.38.28.31.06.29.18.09.36-.41.39-.92.56-1.47.63-1.23.15-2.33-.19-3.41-.93Z"/>
      <path class="cls-124" d="m75.38,81.54c-.2-.83-.38-1.66-.61-2.48-.18-.61-.45-1.19-1-1.76.11.64.21,1.15.28,1.66.06.48.16.97-.17,1.4-.15-.28-.29-.55-.44-.82.33-.43.19-.91.06-1.35-.2-.68-.47-1.35-.72-2.02-.06-.16-.15-.31-.14-.52.48.13.77.45,1.05.78.78.92,1.23,2.02,1.59,3.15.06.2.13.4.2.59.04.33-.16.74.29.95-.13.14-.26.28-.39.42Z"/>
      <path class="cls-97" d="m39.73,90.05c.11-.07.22-.15.34-.22.93.27,1.17.57,1.14,1.53-.02.7.06,1.39.16,2.08.04.29-.05.34-.31.24-.68-.25-1.25-.68-1.77-1.17,0-.15.01-.31.02-.46.14-.14.32-.11.49-.14.39-.07.61-.31.7-.68.08-.36-.1-.6-.36-.8-.15-.11-.35-.16-.4-.38Z"/>
      <path class="cls-66" d="m30.88,55.92c.21,2.3.54,4.58.88,6.91-.28-.11-.25-.33-.29-.49-.21-.96-.44-1.88-.93-2.76-.42-.76-.16-1.64-.02-2.47.06-.36.12-.72.18-1.09.04-.07.06-.17.18-.1Z"/>
      <path class="cls-32" d="m49.06,50.03c-.84-.34-1.67-.69-2.52-1.02-1.6-.61-3.24-1.11-4.93-1.42-.38-.33-.62-.1-.83.22-.16-.32.02-.49.29-.53.24-.04.5,0,.75.01.17.11.38-.01.55.09.79.07,1.53.33,2.27.59,1.52.55,3.08,1.01,4.54,1.73.07.12.21.09.42.15-.24.08-.39.12-.54.17Z"/>
      <path class="cls-71" d="m42.16,58.45c-.3.32-.6.07-.86-.04-.26-.11-.48-.33-.71-.5-.23.07-.34-.12-.5-.21-.43-.25-.79-.64-1.31-.73-.23-.07-.44-.16-.62-.32.76-.39,1.56-.59,2.42-.53.19,1.01.72,1.79,1.6,2.33Z"/>
      <path class="cls-73" d="m58.32,4.09c-.35.14-.71.28-1.06.42.63.1,1.18-.29,1.92-.17-1.02.43-1.94.82-2.86,1.21-.3-.23-.53.02-.75.14-.33.19-.63.43-.92.66-.15.12-.2.1-.22-.09.99-1.22,2.19-2.08,3.78-2.3.11-.03.14.02.11.12Z"/>
      <path class="cls-66" d="m87.01,54.12c.05-.51.28.04.42-.09-.04-.21-.18-.37-.31-.54-.25-.22-.41-.47-.35-.83.14-.11.28-.04.38.04.36.29.85.37,1.12.79.08.72-.2,1.35-.48,1.99-.06.14-.17.26-.16.43,0,.16-.06.3-.17.42-.15-.05-.09-.24-.21-.31-.02-.64.01-1.28-.23-1.9Z"/>
      <path class="cls-66" d="m40.56,56.12c-.81.18-1.61.35-2.42.53-.1,0-.2,0-.31,0-.04-.11-.08-.22-.12-.33.6-.31,1.2-.64,1.81-.92.99-.45,1.1-.36,1.03.72Z"/>
      <path class="cls-58" d="m84.6,53.93c-.35-.22-.4-.63-.61-.95,0-.01-.01-.03-.01-.05-.03-.17.1-.25.21-.25.39-.02.59-.63.98-.4.37.21.64.58.95.89.1.1-.03.14-.08.2-.54.04-1.02.24-1.44.56Z"/>
      <path class="cls-65" d="m26.6,57.25c-.23-.1-.29-.33-.27-.52.1-1.06-.4-1.9-.97-2.71.09.05.2.08.28.14.37.27,1.04.28,1.1.79.09.76.2,1.56-.13,2.31Z"/>
      <path class="cls-45" d="m9.27,46.55c0-2.62,0-5.25-.01-7.87.2.19.2.43.2.68,0,2.21,0,4.42,0,6.64,0,.2.05.43-.18.56Z"/>
      <path class="cls-67" d="m83.84,58.34c.09.44.19.89.28,1.33.15.77.04,1.49-.46,2.13-.3-.12-.12-.36-.13-.55.05-1,.09-2.01.14-3.01.12-.07.14.03.17.1Z"/>
      <path class="cls-76" d="m21.97,53.19c.02-.1.04-.18.06-.27.04-.13.03-.32.18-.35.2-.04.22.18.29.31.2.39.42.77.5,1.2.02.1.01.24-.05.29-.08.08-.2-.01-.28-.06-.43-.25-.56-.69-.69-1.12Z"/>
      <path class="cls-80" d="m30.06,66c-.09-.24-.14-.5.11-.66.24-.16.51-.11.74.04.25.16.33.39.23.68-.05.13-.08.27-.12.4-.11-.6-.6-.37-.95-.45Z"/>
      <path class="cls-38" d="m23.29,53.14c-.23-.12-.36-.33-.51-.52-.13-.17-.28-.36-.07-.56.16-.16.39-.32.6-.22.22.1.24.37.18.6-.07.23-.03.49-.19.71Z"/>
      <path class="cls-95" d="m27.63,70.36c0-.27,0-.57.3-.53.45.06.41.49.45.82.03.24-.05.43-.33.39-.43-.06-.36-.43-.42-.68Z"/>
      <path class="cls-99" d="m24.16,56.86c.34.62.56,1.29.67,2.09-.73-.48-.76-1.12-.78-1.77,0-.12-.15-.29.11-.32Z"/>
      <path class="cls-75" d="m63.37,100.98c.09-.11.21-.1.34-.1,1.35,0,2.7,0,4.05,0,.12,0,.25-.01.33.1-1.57.06-3.15.16-4.72,0Z"/>
      <path class="cls-122" d="m25.1,60.38c-.02.22-.17.38-.37.33-.41-.1-.45-.49-.52-.82-.03-.15.07-.31.28-.28.42.07.52.41.61.76Z"/>
      <path class="cls-30" d="m26.15,62.95c.31.21.36.56.4.9.02.18-.18.41-.31.33-.31-.18-.4-.55-.46-.89-.03-.19.14-.3.36-.33Z"/>
      <path class="cls-102" d="m61.16,99.64c-.11.12-.26.09-.39.09-1.77,0-3.54,0-5.3,0-.14,0-.28.03-.39-.09.49,0,.98,0,1.47-.01,1.08-.08,2.17-.08,3.25,0,.46,0,.91.01,1.37.02Z"/>
      <path class="cls-95" d="m27.72,67.04c-.01.2-.07.4-.29.37-.37-.05-.34-.4-.4-.66-.04-.19.05-.38.26-.38.44.02.31.43.43.66Z"/>
      <path class="cls-61" d="m25.75,94.79c-.1-1.15-.12-2.31,0-3.47.16.14.1.32.1.49,0,.83,0,1.66,0,2.49,0,.17.06.35-.1.49Z"/>
      <path class="cls-78" d="m38.04,99.42c.26-.01.52-.01.77.09.7.29,1.44.3,2.17.41-.72,0-1.45.08-2.17-.1-.28-.07-.56-.18-.77-.4Z"/>
      <path class="cls-74" d="m69.15,101.62c-.98.1-1.96.13-2.94,0,.26-.21.57-.11.85-.09.7.03,1.41-.14,2.09.09Z"/>
      <path class="cls-122" d="m23.65,57.37c-.01.18,0,.43-.2.37-.39-.11-.33-.52-.41-.83-.03-.12,0-.33.11-.3.36.11.41.47.5.75Z"/>
      <path class="cls-52" d="m61.98,99.09c.14.04.31-.06.45.1h-4.63s0-.04,0-.06c.21-.01.43-.02.64-.03.15-.12.33-.09.5-.09.85,0,1.69,0,2.54,0,.17,0,.35-.03.5.09Z"/>
      <path class="cls-16" d="m5.57,45.61c0,1.05,0,2.1,0,3.15-.3-1.05-.26-2.1,0-3.15Z"/>
      <path class="cls-85" d="m54.54,19.55c.56-.04,1.1.08,1.65.13,0,.06,0,.11,0,.17-.62,0-1.24,0-1.86,0,.07-.1.22-.13.21-.29Z"/>
      <path class="cls-38" d="m30.25,69.58c.03-.12-.04-.36.2-.31.24.05.44.24.42.51-.01.18-.07.43-.31.39-.29-.05-.31-.33-.31-.59Z"/>
      <path class="cls-7" d="m61.98,99.09c-1.18,0-2.36,0-3.54,0,0-.03-.02-.05-.02-.08,0,0,0-.05,0-.05,1.19-.04,2.37-.04,3.56,0v.04s0,.05-.01.08Z"/>
      <path class="cls-59" d="m59.79,99.62c-1.08.05-2.17.04-3.25,0,.19-.18.43-.11.64-.09.87.04,1.75-.13,2.61.09Z"/>
      <path class="cls-24" d="m48.78,100.46c.06,0,.12.01.19.02-.39.21-.82.08-1.22.09-.53.03-1.07,0-1.61-.11h2.64Z"/>
      <path class="cls-104" d="m66.1,108.98c.3,0,.61-.01.91-.02.64,0,1.28,0,1.92,0-.95.05-1.89.25-2.83.02Z"/>
      <path class="cls-101" d="m83.96,54.56c.22.07.44.13.66.2-.13.23-.35.33-.57.26-.21-.07-.32-.26-.08-.47Z"/>
      <path class="cls-72" d="m68.96,43.36c.19.27.38.53.39.88-.18-.24-.35-.48-.53-.72.05-.05.09-.1.14-.16Z"/>
      <path class="cls-23" d="m10.83,64.83c.24.48.08.98.09,1.48-.02.05-.05.05-.09.01,0-.5,0-.99,0-1.49Z"/>
      <path class="cls-57" d="m30.72,54.45c.15.19.21.39.15.67-.27-.21-.14-.46-.15-.67Z"/>
      <path class="cls-113" d="m50.27,8.95c.02-.21.19-.29.35-.38-.05.18-.1.36-.3.42-.01-.02-.03-.03-.04-.04Z"/>
      <path class="cls-100" d="m83.84,58.34c-.06-.03-.11-.07-.17-.1,0-.14,0-.27,0-.53.13.27.22.43.17.63Z"/>
      <path class="cls-19" d="m30.88,55.92c-.06.03-.12.07-.18.1,0-.14,0-.28,0-.42.05-.07.07-.18.19-.11,0,.14,0,.29,0,.43Z"/>
      <path class="cls-116" d="m83.53,61.25c.07.18-.07.4.13.55-.05.07-.13.24-.19.06-.06-.18-.06-.42.06-.61Z"/>
      <path class="cls-123" d="m10.83,66.32s.06,0,.09-.01c0,.26.05.52-.08.77,0-.25,0-.51,0-.76Z"/>
      <path class="cls-102" d="m54.57,99.62c-.25-.02-.53.1-.76-.09.26,0,.52-.03.76.09Z"/>
      <path class="cls-22" d="m24.16,56.86c-.13.07-.08.21-.11.32-.09-.09-.09-.21-.09-.33,0-.06-.01-.15.08-.14.05,0,.08.09.12.15Z"/>
      <path class="cls-88" d="m36.46,36.04c-.12-.05-.19-.14-.2-.28.11.05.22.1.33.15-.04.04-.08.08-.13.12Z"/>
      <path class="cls-102" d="m53.61,99.51c-.18-.01-.38.07-.54-.08.18,0,.37-.02.54.08Z"/>
      <path class="cls-56" d="m57.72,14.72c.07.02.19.02.13.14-.05.09-.17.06-.26.05,0-.03,0-.06,0-.09.04-.03.08-.06.13-.09Z"/>
      <path class="cls-57" d="m30.89,55.5c-.07.04-.13.07-.19.11,0-.1-.05-.23.07-.27.12-.04.11.08.13.16Z"/>
      <path class="cls-28" d="m91.71,96.14h4.23s0,.07,0,.11c-1.46,0-2.92,0-4.38,0-.04,0-.09-.05-.13-.08.09,0,.19-.01.28-.02Z"/>
      <path class="cls-93" d="m83.76,102.37c-.02.21-.12.33-.4.26-1.67-.38-3.35-.27-5.03-.07-.19.02-.39.02-.58,0-1.54-.07-3.07.06-4.61.14-1.15.06-2.3.07-3.45.07-1.26,0-2.5.16-3.76.21-.42.02-1.02,0-1.06-.39-.02-.29.64-.32,1.04-.35,1.92-.13,3.85-.02,5.76-.13,1.63-.09,3.25.03,4.87-.1,2.16-.16,4.32-.21,6.49-.19.51,0,.73.16.73.53Z"/>
      <path class="cls-93" d="m47.21,102.68c-.51-.51-1.06-.62-1.68-.65-2.97-.18-5.94-.27-8.9-.19-2.27.06-4.53.18-6.8.2-.14,0-.28,0-.42,0-.21-.01-.45-.02-.48-.29-.03-.28.24-.26.41-.31.32-.09.64-.14.98-.13,4.13,0,8.26,0,12.4,0,.96,0,1.91.18,2.88.11.1,0,.21,0,.32,0q1.22-.05,1.32,1.27Z"/>
      <path class="cls-62" d="m18.52,96.49c-.38.05-.7-.08-.96-.33-.42-.39-.83-.79-1.24-1.19-.07-.07-.16-.16-.12-.27.05-.12.18-.09.28-.1,1.06-.05,2.13-.11,3.19-.13.6-.01,1.37,1.02,1.22,1.59-.05.2-.18.29-.38.29-.33,0-.66,0-1,.03-.33.02-.66.07-.99.11Z"/>
      <path class="cls-62" d="m92.63,98.67c-.35,0-.7,0-1.05,0-.25,0-.37-.13-.38-.39-.05-1.12.4-1.6,1.49-1.58.93.02,1.85.04,2.78.07.11,0,.27-.06.33.08.07.16-.09.25-.18.34-.25.27-.51.53-.75.81-.6.71-1.39.81-2.24.67Z"/>
      <path class="cls-119" d="m88.27,42.88c-.1-.08-.27-.13-.21-.27.03-.07.16.04.21.13,0,.05,0,.09,0,.14Z"/>
      <path class="cls-12" d="m87.45,56.32c-.06-.19,0-.33.17-.42.93.21,1.81.22,2.49-.62.08-.1.2-.16.32-.09.14.07.19.2.17.35-.03.27-.15.49-.38.66-.46.33-.98.44-1.53.43-.28,0-.56.01-.84.02-.13-.11-.27-.23-.4-.34Z"/>
      <path class="cls-125" d="m88.26,53.49c-.48-.28-.95-.56-1.43-.84-.11.02-.03.26-.22.2-.13-.22-.26-.45-.46-.81,1,.46,1.85.9,2.65,1.44-.18.03-.36.13-.54,0Z"/>
      <path class="cls-91" d="m86.42,51.48c-1.39-.7-2.59-1.67-3.85-2.58,1.34.06,2.36.94,3.53,1.42-.1.34,0,.63.27.86.1.09.11.19.05.3Z"/>
      <path class="cls-82" d="m87.67,52.14c-.23-.13-.49-.21-.65-.44.08-.18.17-.33.41-.2.35.15.64-.05.94-.18.26-.11.52-.18.81-.14.18.03.35.09.37.3.02.19-.12.26-.26.34-.5.3-1.05.32-1.61.31Z"/>
      <path class="cls-89" d="m87.42,51.5c-.17,0-.27.13-.41.2-.23.02-.4-.15-.6-.22-.02-.1-.03-.2-.05-.3.57-.38.91-.28,1.05.33Z"/>
      <path class="cls-79" d="m87.95,50.58c.21.04.43.07.76.13-.37.07-.62.1-.86-.04.02-.05.05-.08.1-.09Z"/>
      <path class="cls-9" d="m87.95,50.58s-.07.06-.1.09c-.18-.01-.37,0-.53-.11.11-.03.25.02.33-.12.1.04.2.09.3.13Z"/>
      <path class="cls-84" d="m72.08,4.43c-.78-.03-1.39-.35-2.13-.58.72-.08,1.47.13,2.13.58Z"/>
      <path class="cls-124" d="m66.32,57.06c-.08-.62-.28-.77-.86-.59-.48.15-.93.41-1.43.51-.2.04-.4.11-.67,0,.25-.39.59-.61.95-.81,1.54-.86,3.21-1.36,4.92-1.77,2.15-.51,4.31-.89,6.53-.81.43.02.85.05,1.26.23-.12.26-.35.27-.54.32-.27.07-.37.19-.13.42.05.05.09.1.13.16.12.17.3.34.21.56-.1.24-.35.03-.52.1-.06-.01-.12-.02-.19-.03-.24-.03-.46-.15-.67-.26-.55-.3-1.15-.36-1.76-.3-.58.05-.69.22-.61.8.01.07,0,.14-.01.2-.18.52-.01,1.09-.27,1.59-.07.15.08.16.18.17.2.03.41.04.66.07-.13.26-.37.31-.57.36-2.22.53-4.46.59-6.71.19-.07-.01-.14-.04-.2-.06-.14-.06-.36-.07-.34-.26.02-.21.24-.14.39-.16.16-.02.39.08.46-.13.06-.19-.1-.36-.22-.5Z"/>
      <path class="cls-124" d="m48.22,81.35c2.2.21,4.19-.12,6.13-.77.4-.13.78-.15,1.18-.02.85.27,1.71.15,2.55-.01,1-.2,1.92-.09,2.86.34,1.25.57,2.6.79,3.95,1.03.18.03.4,0,.56-.08.51-.23.98-.17,1.46.07.21.1.45.15.44.45-.01.3-.15.54-.43.67-.23.1-.47.09-.72.03-1.13-.24-2.28-.43-3.35-.86-1.97-.79-4.04-.75-6.09-.88-1.14-.07-2.29-.11-3.38.28-1.52.55-3.09.89-4.65,1.26-.13.03-.27.06-.41.06-.59,0-.92-.26-.92-.71,0-.55.37-.87.83-.85Z"/>
      <path class="cls-37" d="m63.05,73.98c-.21.56-.68.83-1.2,1.02-1.07.39-2.1.85-3.07,1.44-.64.39-1.26.49-1.97.12-1.02-.53-2.18-.71-3.21-1.24-.44-.23-.77-.52-.96-.98,1.34-.12,2.68-.26,3.91.49.69.66,1.39.41,2.08,0,.3-.04.57-.16.83-.3.44-.24.91-.36,1.4-.35.41,0,.75-.1,1.03-.39.21,0,.41,0,.62-.01.2,0,.39.06.54.21Z"/>
      <path class="cls-124" d="m56.55,74.82c-.02.07-.07.14-.15.1-.92-.62-1.96-.52-2.98-.51-.26,0-.52.02-.78-.07-.19-.25-.4-.49-.57-.75-.56-.89-.48-1.72.26-2.56.2.22.13.48.12.73-.04,1.23.48,1.69,1.7,1.51.62-.09,1.15.08,1.57.54.29.32.55.68.83,1.02Z"/>
      <path class="cls-66" d="m58.21,85.1c.16-.14.38-.13.57-.24.31-.19.58,0,.74.27.16.27-.01.45-.23.6-1.03.75-3.12.72-4.15-.08-.18-.14-.46-.28-.36-.58.1-.31.39-.3.66-.28.09,0,.17,0,.26.01.17.39.49.57.9.63.48.07.96.22,1.45.15.14-.02.3-.03.36-.18.08-.18-.17-.19-.21-.32Z"/>
      <path class="cls-69" d="m61.89,73.78c-.06.39-.32.52-.67.51-.75-.02-1.45.15-2.09.55-.16.09-.34.23-.49-.02.12-.25.25-.49.36-.75.27-.62.8-.92,1.47-.76.48.12.95.3,1.43.46Z"/>
      <path class="cls-66" d="m72.94,55.8c-.4-.82-.23-1.1.67-1.16.89-.06,1.69.15,2.39.72-.59.3-1.22.35-1.88.34-.39,0-.8-.1-1.18.1Z"/>
      <path class="cls-50" d="m63.05,73.98c-.2-.03-.42,0-.54-.21.05-.11.1-.22.14-.33q.6-1.52.16-2.97c1.08.62,1.2,2.29.24,3.51Z"/>
      <path class="cls-50" d="m58.21,85.1c.17.04.43-.06.45.23.02.27-.22.36-.41.38-.79.1-1.56-.05-2.3-.33-.25-.1-.29-.32-.24-.57.82.25,1.64.4,2.5.29Z"/>
      <path class="cls-92" d="m63.73,59.58c.25,0,.41.17.59.29.45.3.82.69,1.2,1.08.12.12.21.25.09.41-.12.16-.27.12-.41,0-.54-.44-1.08-.87-1.61-1.31-.1-.08-.14-.2-.11-.33.03-.13.14-.14.24-.15Z"/>
      <path class="cls-50" d="m61.18,57.71c.21-.15.25-.63.59-.45.36.19,0,.49-.06.73-.08.39-.31.74-.25,1.16-.12.33-.24.66-.39,1.07-.5-.92-.03-1.71.11-2.51Z"/>
      <path class="cls-111" d="m53.62,59.68c-.03-.73-.53-1.29-.7-1.96-.08-.32-.08-.54.35-.42.48.71.68,1.52.82,2.35.02.14.14.34-.04.42-.17.07-.25-.13-.34-.26-.03-.04-.06-.08-.09-.12Z"/>
      <path class="cls-70" d="m58.12,78.04c-.45.89-1.43,1.22-2.02.74-.11-.09-.24-.18-.18-.34.05-.15.21-.2.35-.15.62.22,1.19.03,1.86-.24Z"/>
      <path class="cls-5" d="m57.62,56.05c-.79-.68-.54-1.41-.35-2.13.23.66.23,1.35.35,2.13Z"/>
      <path class="cls-80" d="m59.89,50.34c.04.7-.21,1.3-.68,1.91-.22-.85.26-1.35.59-1.9.02-.05.05-.05.09,0Z"/>
      <path class="cls-60" d="m76.24,56.33c-.17.52-.43.74-.78.85-.1.03-.21.04-.26-.09-.04-.11.06-.15.13-.2.26-.16.53-.32.92-.56Z"/>
      <path class="cls-14" d="m59.89,50.34s-.06,0-.09,0c.06-.16.12-.31.18-.47.06.18.05.34-.1.46Z"/>
      <path class="cls-96" d="m59.71,11.58c-1.31-.26-2.57.05-3.84.37,1.01-1.07,2.32-1.64,3.64-2.25-2.5-.23-4.36,1.03-6.17,2.46.3-.93.95-1.56,1.65-2.11,1.3-1.02,2.77-1.61,4.45-1.78,1.25-.13,2.37.28,3.54.5.9.17,1.83.25,2.7.58.08.03.17.03.22.14-1.32.02-2.65-.21-4.09.33,2.44.69,4.37,1.93,5.96,3.7,1.57,1.75,2.84,3.68,3.51,5.97-.98-1.13-1.94-2.26-2.94-3.38-.39-.44-.88-.79-1.39-1.1-.69-.42-1.1-1.18-1.84-1.54-.22-.11-.43-.22-.82-.21.58.42,1.03.83,1.37,1.54-.6-.5-1.1-.86-1.64-1.18-.64-.37-1.32-.56-2.04-.57-.67,0-1.32-.11-1.98-.13-.11,0-.23-.07-.46-.14,1.05-.36,2.02-.4,3.04-.43-.5-.42-1.09-.43-1.65-.57.02-.05.1-.08.1-.1,0-.06-.06-.01-.08-.01-.42,0-.85.14-1.25-.09Z"/>
      <path class="cls-96" d="m69.59,8.43c.46-.03.83.07,1.18.19,1.65.58,3.25,1.29,4.79,2.11,1.55.83,2.59,2.2,3.6,3.6,1.2,1.66,1.99,3.52,2.63,5.45.6,1.82,1.2,3.65,1.79,5.47.03.1.09.19.02.35-.76-1.34-1.5-2.64-2.24-3.94-1.31-2.27-2.58-4.56-3.94-6.79-.95-1.55-2.31-2.74-3.79-3.77-1.02-.71-2.07-1.37-3.16-1.95-.31-.16-.6-.35-.86-.73Z"/>
      <path class="cls-96" d="m89.34,49.65c-1.62-.22-3.17-.66-4.73-1.08-1.31-.36-2.44-1.06-3.44-1.94-1.6-1.43-2.95-3.06-3.93-4.99-1-1.98-1.87-4.03-2.84-6.02-.15-.31-.33-.61-.57-1.04.65.44,1.01.94,1.32,1.49,1.19,2.16,2.51,4.24,4.05,6.16,1.71,2.13,3.64,4.05,5.94,5.56,1,.66,2.08,1.15,3.25,1.42.35.08.69.2.96.45Z"/>
      <path class="cls-54" d="m63.47,25.11c-.61-.64-1.22-1.29-1.84-1.92-.23-.24-.47-.47-.78-.6-.39-.35-.77-.7-1.16-1.05-.03-.19-.21-.34-.13-.55.12-.34-.17-.45-.35-.62-.3-.28-.71-.45-.95-.96.72.31,1.39.52,2.09.6.36.04.72.11,1.09.16.97.13,1.79.56,2.48,1.24,1.5,1.48,2.64,3.21,3.62,5.05.83,1.57,1.61,3.16,2.42,4.74.13.26.29.51.44.76.07.14.06.22-.13.2-1.23-1.99-2.29-4.08-3.45-6.1-.63-1.1-1.31-2.15-2.23-3.03-.67-.64-1.42-1.13-2.27-1.48-.38-.16-.78-.27-1.26-.11,1.3,1.32,2.52,2.64,3.6,4.09.89,1.19,1.73,2.41,2.4,3.75.02.11.08.23-.11.24-.84-1.15-1.68-2.31-2.53-3.46-.27-.36-.55-.72-.95-.96Z"/>
      <path class="cls-96" d="m84.54,18.79c3.29,4.44,3.82,9.69,4.34,14.94-2.05-4.81-3.18-9.88-4.34-14.94Z"/>
      <path class="cls-96" d="m49.35,7.28c-.04-1.04.36-1.91,1.1-2.59,1.56-1.43,3.5-1.93,5.54-2.18,1.06-.13,2.11-.26,3.18-.19,1.67.1,3.31.38,4.93.82.14.04.31.05.4.33-.65-.06-1.26-.1-1.87-.16-1.16-.12-2.33-.19-3.5-.15-.08,0-.19-.02-.22.09-.04.13.08.18.16.23.24.14.54.15.79.43-1.99-.36-3.92-.54-5.84,0-1.97.55-3.46,1.75-4.68,3.38Z"/>
      <path class="cls-96" d="m82.02,33.3c.7.49,1.18,1.18,1.75,1.79.98,1.04,1.93,2.11,2.88,3.18.86.96,1.77,1.88,2.58,2.89.68.85.73,1.89.98,3.04-.4-.44-.64-.79-.85-1.2-.66-1.28-1.56-2.39-2.49-3.48-1.7-2-3.5-3.93-4.84-6.22Z"/>
      <path class="cls-29" d="m81.74,16.93c.81,1.18,1.43,2.47,2.19,3.69-.04-1.28-.51-2.45-.87-3.74.31.25.37.54.47.8.81,2.19,1.32,4.45,1.69,6.75.05.33.08.66.12.99.03.11.09.23-.11.23-.66-2.81-1.96-5.35-3.25-7.9-.12-.23-.22-.47-.33-.71-.06-.11,0-.11.08-.1Z"/>
      <path class="cls-86" d="m74.2,47.71c-1.98-2.5-3.58-5.24-4.85-8.18,1.54,2.76,3.24,5.41,4.96,8.06.05.11-.01.13-.11.11Z"/>
      <path class="cls-96" d="m62.23,4.31c.14,0,.27,0,.41,0,.17,0,.4.05.46-.15.06-.23-.23-.19-.34-.31.68-.13,1.92.17,3.75.98-1.42-.14-2.84-.28-4.27-.42v-.1Z"/>
      <path class="cls-64" d="m59.71,11.58c.55-.07,1.1-.08,1.77.03-.25.08-.39.13-.53.17-.91.41-1.89.62-2.83.94-.11.03-.14-.02-.12-.12.5-.46,1.13-.7,1.7-1.03Z"/>
      <path class="cls-44" d="m66.96,29.52c.04-.08.07-.16.11-.24.58.84.97,1.77,1.25,2.76.05.11.1.22-.1.22l-1.26-2.73Z"/>
      <path class="cls-48" d="m59.57,20.99c.08.17.31.31.13.55-.56-.3-1.12-.59-1.81-.96.74-.1,1.15.37,1.69.41Z"/>
      <path class="cls-53" d="m89.96,37.41c-.28-.53-.57-1.05-.85-1.58.53.35.76.89.97,1.44.04.12-.02.15-.12.14Z"/>
      <path class="cls-27" d="m55.97,14.25c.26-.39.59-.71,1.03-.88-.21.45-.62.66-1.03.88Z"/>
      <path class="cls-110" d="m70.28,32.17c.09-.04.12-.11.13-.2.24.26.34.58.43.91.03.11-.02.14-.12.12-.2-.25-.31-.55-.44-.83Z"/>
      <path class="cls-3" d="m86.61,52.85c.07-.07.15-.13.22-.2-.08.34.23.54.29.84-.25.12-.3-.04-.32-.23-.06-.13-.12-.27-.19-.4Z"/>
      <path class="cls-13" d="m85.24,25.64c.04-.08.07-.15.11-.23.13.24.07.5.1.75.04.11.08.21-.11.19-.04-.24-.07-.48-.11-.72Z"/>
      <path class="cls-46" d="m69.35,39.32c-.27-.08-.24-.3-.25-.51.08.17.17.34.25.51Z"/>
      <path class="cls-126" d="m74.2,47.71s.07-.08.11-.11c.12.17.25.35.37.52,0,.06-.02.08-.08.04-.18-.11-.3-.26-.4-.44Z"/>
      <path class="cls-4" d="m85.35,26.36c.04-.06.07-.13.11-.19.15.16.07.35.09.57-.25-.08-.2-.24-.2-.38Z"/>
      <path class="cls-20" d="m68.22,32.26c.03-.07.06-.15.1-.22.07.21.14.42.21.64.04.11,0,.13-.1.1-.07-.17-.14-.35-.21-.52Z"/>
      <path class="cls-31" d="m51.15,8.01c-.03.23-.14.3-.25.37-.02,0-.05,0-.05,0-.02-.19.14-.22.3-.36Z"/>
      <path class="cls-18" d="m81.74,16.93s-.06.07-.08.1c-.09-.11-.19-.22-.17-.39.15.05.2.17.25.29Z"/>
      <path class="cls-26" d="m58.01,12.61s.08.08.12.12c-.11.07-.22.13-.35.21-.04-.22.12-.25.23-.33Z"/>
      <path class="cls-108" d="m58.32,4.09s-.07-.08-.11-.12c.12-.08.27-.16.34-.01.04.08-.13.13-.24.13Z"/>
      <path class="cls-2" d="m74.6,48.15s.05-.03.08-.04c.08.1.16.21.26.33-.26.02-.29-.15-.34-.3Z"/>
      <path class="cls-117" d="m67.56,39.42s-.07.07-.1.1c-.1-.09-.11-.2-.08-.32.15,0,.15.12.18.22Z"/>
      <path class="cls-121" d="m89.96,37.41s.08-.09.12-.14c.08.11.11.23.06.38-.14-.02-.15-.15-.19-.24Z"/>
      <path class="cls-118" d="m70.72,33s.08-.08.12-.12c.09.1.12.21.07.38-.12-.06-.16-.15-.19-.26Z"/>
      <path class="cls-103" d="m68.43,32.77s.07-.07.1-.1c.1.09.11.21.09.38-.13-.07-.17-.17-.19-.28Z"/>
      <path class="cls-107" d="m62,98.97c-1.19.05-2.37.04-3.56,0,.54-.17,1.1-.07,1.65-.07.64,0,1.28-.11,1.91.07Z"/>
      <path class="cls-124" d="m41.8,50.75c-2.43.23-4.85.57-7.29.55-.35,0-.67-.05-.45-.53,1.28-.7,2.44-1.62,3.83-2.13.44-.16.88-.34,1.34-.44.32-.07.62-.03.84.17.71.69,1.41,1.4,1.73,2.38Z"/>
      <path class="cls-69" d="m47.18,47.06c-.76,0-1.23-.38-1.24-.98-.01-.74.47-1.3,1.14-1.31.6,0,1.12.58,1.13,1.28,0,.6-.41,1.01-1.03,1.01Z"/>
      <path class="cls-54" d="m42.38,47.39c-.19-.01-.39.08-.55-.09.19,0,.38-.02.55.09Z"/>
      <path class="cls-63" d="m39.21,53.14c1.16-.37,2.31-.55,3.6,0h-3.6Z"/>
      <path class="cls-124" d="m63.55,55.46c2.77-1.83,5.77-2.94,9.16-2.98-.08.33-.34.33-.56.38-2.45.58-4.9,1.16-7.24,2.09-.45.18-.87.44-1.36.5Z"/>
      <path class="cls-49" d="m62.94,55.85c.12-.14.24-.29.51-.29-.15.22-.34.25-.51.29Z"/>
      <path class="cls-69" d="m42.32,66.74c-1-.01-1.67-.52-1.64-1.24.03-.65.69-1.21,1.42-1.19.87.02,1.44.59,1.42,1.41-.01.74-.36,1.03-1.2,1.02Z"/>
      <path class="cls-111" d="m38.77,56.97c.15-.19.31-.11.46,0,.46.31.91.63,1.36.95,0,.03-.01.09-.03.09-.4.09-1.61-.51-1.79-.88-.02-.04,0-.1,0-.16Z"/>
      <path class="cls-25" d="m41.72,16.04q-1.47-.8-2.63.3c-.03-.74.34-1.27.98-1.41.78-.17,1.26.14,1.65,1.11Z"/>
      <path class="cls-25" d="m32.32,21.3c-.03-.44.41-1.16.75-1.23.52-.11.93.17,1.11.78.12.43.23.86.15,1.4-.16-.38-.27-.69-.41-.98-.34-.69-.68-.75-1.23-.24-.11.1-.2.24-.37.26Z"/>
      <path class="cls-68" d="m40.99,32.36c.3.2.61.4.85.68.1.12.21.23.21.41,0,.13-.03.24-.16.3-.16.08-.21-.04-.28-.15-.24-.38-.48-.76-.72-1.14-.03-.1,0-.14.1-.11Z"/>
      <path class="cls-127" d="m40.99,32.36s-.07.07-.1.11c-.14-.06-.25-.16-.31-.34.19.03.3.13.41.24Z"/>
      <path class="cls-62" d="m30.75,32.62c-.61-.23-1-.52-1.4-.8-.2-.14-.4-.28-.61-.41-.46-.27-.82-.1-1.12.36-.04-.73.37-1.29.94-1.36.28-.04.47.13.62.32.49.59.98,1.18,1.56,1.89Z"/>
      <path class="cls-62" d="m36.47,36.46c.59.28,1.22.5,1.59,1.12.11.18.21.36.19.58-.02.18-.12.28-.3.3-.16.02-.3-.04-.31-.21-.05-.86-.81-1.15-1.28-1.68-.03-.1,0-.15.11-.11Z"/>
      <path class="cls-43" d="m36.47,36.46s-.07.07-.11.11c-.12-.08-.3-.09-.37-.28.19.02.35.05.48.17Z"/>
      <path class="cls-47" d="m62.11,54.54c-.43-.04-.78-.33-1-.75-.21-.37.02-.67.26-.94.45-.5.97-.91,1.54-1.25,2.58-1.5,5.34-2.58,8.16-3.56.96-.33,1.66.09,2.33.66.3.26.8.51.75.88-.05.38-.62.34-.97.46-3.53,1.19-6.99,2.55-10.32,4.25-.22.11-.43.23-.76.24Z"/>
      <path class="cls-66" d="m69.3,43.11c.72.67,1.27,1.47,1.87,2.23.33.43.6.9.9,1.35.11.17.39.36.08.56-.27.18-.67.41-.88.04-.74-1.35-1.53-2.68-1.96-4.18Z"/>
      <path class="cls-81" d="m83.87,52.7c-.62-.84-1.07-1.6-1.42-2.42-.07-.15-.14-.29.04-.41.17-.12.3-.03.43.06.57.42,1.02.9.95,1.68-.03.31,0,.62,0,1.08Z"/>
      <path class="cls-90" d="m84.18,51.17c.58.42.25.81-.12,1.36v-1.03c-.02-.13-.14-.3.12-.33Z"/>
      <path class="cls-35" d="m84.18,51.17c-.14.07-.09.22-.12.33-.1-.14-.14-.31-.05-.45.05-.07.13.05.17.12Z"/>
      <path class="cls-83" d="m44.15,56.54c-.4-.03-.64-.23-.63-.62,0-.38.26-.55.62-.55.39,0,.63.22.62.61,0,.37-.27.54-.61.56Z"/>
      <path class="cls-69" d="m39.73,90.05c.12.07.25.13.37.2.43.24.64.57.51,1.08-.13.49-.44.73-.94.74-.12,0-.24,0-.37,0-.34-.32-.75-.57-.76-1.13,0-.62.2-.85.82-.86.12,0,.24-.01.37-.02Z"/>
      <path class="cls-47" d="m69.53,57.8c-.92.09-1.82-.05-2.4-.99-.15-.24-.45-.44-.1-.76.43-.39.9-.5,1.23-.24.16.13.29.3.44.45.33.3.71.47,1.15.33.44-.14.61-.49.65-.92.05-.47.27-.74.78-.72.55.03.87.29.92.81.12,1.1-.65,1.99-1.76,2.05-.28.01-.56,0-.92,0Z"/>
      <path class="cls-47" d="m34.84,50.82c.14-.27.32-.32.47-.39.98-.46,1.96-.92,2.95-1.37.96-.43,1.97-.11,2.44.76.18.33.14.5-.26.58-.86.18-1.73.25-2.6.31-.8.06-1.61,0-2.4.14-.18.03-.37-.02-.61-.03Z"/>
      <path class="cls-98" d="m46.36,46.05c.07-.37.16-.72.6-.76.38-.03.46.27.46.56,0,.38-.16.66-.57.68-.32.02-.46-.2-.5-.49Z"/>
      <path class="cls-114" d="m42.09,66.18c-.5,0-.86-.27-.86-.66,0-.39.34-.7.77-.7.42,0,.75.3.76.71.02.36-.28.65-.67.65Z"/>
      <path class="cls-21" d="m39.43,90.77c.29,0,.48.13.46.44,0,.17-.05.39-.27.38-.3-.02-.52-.21-.57-.52-.05-.29.2-.26.38-.3Z"/>
    </g>
  </g>
</svg>