<?xml version="1.0" encoding="UTF-8"?>
<svg id="Layer_2" data-name="Layer 2" xmlns="http://www.w3.org/2000/svg" viewBox="0 0 477.05 388">
  <defs>
    <style>
      .cls-1 {
        fill: #a8eaeb;
      }

      .cls-2 {
        fill: #1b1464;
      }

      .cls-3 {
        fill: #2a1e54;
      }
    </style>
  </defs>
  <g id="ABOUT_US" data-name="ABOUT US">
    <g>
      <polygon class="cls-1" points="468.98 337.77 477.05 329.7 477.05 289.36 468.98 281.29 468.98 337.77"/>
      <path class="cls-2" d="m48.41,0v111.78l3.64-14.03V14.03h415.1v327.67H196.08l-3.64,14.03h278.36V0H48.41Z"/>
      <path class="cls-1" d="m50.68,127.93c-2.82,0-5.1-2.29-5.1-5.1s2.29-5.1,5.1-5.1,5.1,2.29,5.1,5.1-2.29,5.1-5.1,5.1Z"/>
      <path class="cls-1" d="m50.68,145.07c-2.82,0-5.1-2.29-5.1-5.1s2.29-5.1,5.1-5.1,5.1,2.29,5.1,5.1-2.29,5.1-5.1,5.1Z"/>
      <circle class="cls-1" cx="50.68" cy="157.1" r="5.1"/>
      <path class="cls-1" d="m50.68,179.34c-2.82,0-5.1-2.29-5.1-5.1s2.29-5.1,5.1-5.1,5.1,2.29,5.1,5.1-2.29,5.1-5.1,5.1Z"/>
      <circle class="cls-1" cx="50.68" cy="191.38" r="5.1"/>
      <path class="cls-2" d="m50.68,213.62c-2.82,0-5.1-2.29-5.1-5.1s2.29-5.1,5.1-5.1,5.1,2.29,5.1,5.1-2.29,5.1-5.1,5.1Z"/>
      <circle class="cls-2" cx="50.68" cy="225.65" r="5.1"/>
      <path class="cls-2" d="m50.68,247.89c-2.82,0-5.1-2.29-5.1-5.1s2.29-5.1,5.1-5.1,5.1,2.29,5.1,5.1-2.29,5.1-5.1,5.1Z"/>
      <path class="cls-2" d="m50.68,265.03c-2.82,0-5.1-2.29-5.1-5.1s2.29-5.1,5.1-5.1,5.1,2.29,5.1,5.1-2.29,5.1-5.1,5.1Z"/>
      <circle class="cls-2" cx="50.68" cy="277.06" r="5.1"/>
      <circle class="cls-3" cx="50.68" cy="311.33" r="5.1"/>
      <polygon class="cls-2" points="58.3 289.36 58.3 345.83 195.46 345.83 179.33 361.98 42.17 361.98 42.17 305.5 58.3 289.36"/>
      <path class="cls-1" d="m35.92,368.22v-42.92l-11.72,11.71v50.99h83.26l8.08-8.07h137.15l11.72-11.71H35.92Zm215.26,8.07H114.02l-8.07,8.07H27.84v-45.83l4.43-4.42v37.77h223.33l-4.42,4.42Z"/>
      <path class="cls-1" d="m8.07,337.01v24.21l-8.07,8.07v18.71h19.78v-49.48l16.14-16.13v-13.22l-27.86,27.84Zm24.21-16.13l-16.14,16.13v47.34H3.64v-13.56l8.07-8.07v-24.21l20.57-20.55v2.92Z"/>
    </g>
  </g>
</svg>