<?xml version="1.0" encoding="UTF-8"?>
<svg id="Layer_2" data-name="Layer 2" xmlns="http://www.w3.org/2000/svg" viewBox="0 0 106.34 102.95">
  <defs>
    <style>
      .cls-1 {
        fill: #fff;
      }

      .cls-1, .cls-2 {
        stroke: #223f99;
        stroke-miterlimit: 10;
        stroke-width: 2.56px;
      }

      .cls-2 {
        fill: none;
      }

      .cls-3 {
        fill: #272361;
      }
    </style>
  </defs>
  <g id="ABOUT_US" data-name="ABOUT US">
    <g>
      <path class="cls-1" d="m96.13,56.7l8.84-.65-1.29-16.69-8.73.64c-1.31-4.68-3.42-9.03-6.17-12.91l6-6.15-12.37-11.56-5.95,6.1c-4.43-2.77-9.4-4.77-14.73-5.82V1.28h-17.1v8.39c-6.72,1.31-12.87,4.16-18.07,8.13l-6.52-5.54-11.21,12.65,6.58,5.58c-2.74,4.76-4.56,10.1-5.24,15.78l-8.78.64,1.28,16.69,8.87-.65c1.35,4.61,3.48,8.9,6.24,12.72l-6.2,6.35,12.37,11.55,6.24-6.4c4.35,2.67,9.22,4.61,14.43,5.63v8.87h17.1v-8.87c6.59-1.29,12.63-4.05,17.77-7.9l6.82,5.79,11.21-12.64-6.76-5.74c2.77-4.71,4.63-9.99,5.37-15.61Zm-42.96,8.1c-7.52,0-13.61-5.97-13.61-13.32s6.09-13.32,13.61-13.32,13.61,5.96,13.61,13.32-6.09,13.32-13.61,13.32Z"/>
      <path class="cls-3" d="m80.4,51.48c0,14.72-12.19,26.64-27.23,26.64s-27.23-11.93-27.23-26.64,12.19-26.65,27.23-26.65,27.23,11.93,27.23,26.65Z"/>
      <path class="cls-1" d="m66.78,51.48c0,7.35-6.09,13.32-13.61,13.32s-13.61-5.97-13.61-13.32,6.09-13.32,13.61-13.32,13.61,5.96,13.61,13.32Z"/>
      <path class="cls-2" d="m53.17,16.62c18.93,0,35.62,14.88,35.62,34.85"/>
    </g>
  </g>
</svg>