<?xml version="1.0" encoding="UTF-8"?>
<svg id="Layer_2" data-name="Layer 2" xmlns="http://www.w3.org/2000/svg" viewBox="0 0 200.1 213.29">
  <defs>
    <style>
      .cls-1 {
        fill: #ec008c;
      }
    </style>
  </defs>
  <g id="log_in_page" data-name="log in page">
    <g>
      <path class="cls-1" d="m200.1,23.97v141.87s-195.27,0-195.27,0v-92.49s58.23,0,58.23,0v19.13s17.13,17.13,17.13,17.13v32.25s95.93,0,95.93,0V0s23.97,23.97,23.97,23.97Zm-6.84,135.03V26.81s-10.28-10.28-10.28-10.28v132.19s-109.62,0-109.62,0v-36.26s-17.13-17.13-17.13-17.13v-15.12s-44.54,0-44.54,0v78.8s181.58,0,181.58,0Z"/>
      <path class="cls-1" d="m200.1,172.19v23.97s-53.39,0-53.39,0l-17.13,17.13H41.1S0,172.19,0,172.19h200.1Zm-6.84,17.13v-10.28s-176.74,0-176.74,0l27.41,27.41h82.81s17.13-17.13,17.13-17.13h49.38Z"/>
    </g>
  </g>
</svg>