<?xml version="1.0" encoding="UTF-8"?>
<svg id="Layer_2" data-name="Layer 2" xmlns="http://www.w3.org/2000/svg" viewBox="0 0 1393 372.53">
  <defs>
    <style>
      .cls-1 {
        fill: #1b1464;
      }

      .cls-2 {
        fill: #fa099a;
      }
    </style>
  </defs>
  <g id="ABOUT_US" data-name="ABOUT US">
    <g>
      <g>
        <path class="cls-2" d="m243.51,363.7c-5.31,0-9.59,1.97-9.59,4.42s4.28,4.42,9.59,4.42,9.59-1.97,9.59-4.42-4.35-4.42-9.59-4.42Z"/>
        <path class="cls-2" d="m380.66,363.7c-5.31,0-9.59,1.97-9.59,4.42s4.28,4.42,9.59,4.42,9.59-1.97,9.59-4.42-4.35-4.42-9.59-4.42Z"/>
        <path class="cls-2" d="m289.23,363.7c-5.31,0-9.59,1.97-9.59,4.42s4.28,4.42,9.59,4.42,9.59-1.97,9.59-4.42-4.35-4.42-9.59-4.42Z"/>
        <path class="cls-2" d="m426.38,363.7c-5.31,0-9.59,1.97-9.59,4.42s4.28,4.42,9.59,4.42,9.59-1.97,9.59-4.42-4.35-4.42-9.59-4.42Z"/>
        <path class="cls-2" d="m472.09,363.7c-5.31,0-9.59,1.97-9.59,4.42s4.28,4.42,9.59,4.42,9.59-1.97,9.59-4.42-4.35-4.42-9.59-4.42Z"/>
        <path class="cls-2" d="m334.94,363.7c-5.3,0-9.59,1.97-9.59,4.42s4.29,4.42,9.59,4.42,9.59-1.97,9.59-4.42-4.35-4.42-9.59-4.42Z"/>
        <path class="cls-2" d="m524.58,364.99c-.44-.21-.95-.38-1.47-.56-.51-.15-1.09-.29-1.66-.38-.58-.12-1.16-.21-1.79-.26-1.22-.12-2.5-.12-3.77,0-.58.06-1.22.15-1.79.26-.57.09-1.09.24-1.66.38-.51.18-.96.35-1.41.56-1.79.82-2.81,1.97-2.81,3.12s1.02,2.3,2.81,3.12c.45.21.9.38,1.41.56.57.15,1.09.29,1.66.41.58.09,1.21.18,1.79.24.64.06,1.27.09,1.92.09s1.21-.03,1.86-.09c.64-.06,1.21-.15,1.79-.24.57-.12,1.15-.26,1.66-.41.51-.18,1.02-.35,1.47-.56,1.79-.83,2.82-1.94,2.82-3.12s-1.02-2.3-2.82-3.12Z"/>
      </g>
      <g>
        <path class="cls-1" d="m1028.02,43.21h-187.82l-36.56-18.52h-475.22L279.68,0h833.63l-85.29,43.21Zm-182.78-6.17h177.73l60.92-30.87H309.1l24.37,12.35h475.22l36.56,18.52Z"/>
        <path class="cls-2" d="m1115.34,371.2h-538.27l-69.44-31.98H144.29l30.86-21.32h371.98l34.72,15.99h526.51l92.59-79.96h47.76l-133.37,117.27Z"/>
        <path class="cls-1" d="m1120.28,300.2H495.23l-44.12-22.69H0L273.52,43.08h492.5l44.12,22.69h258.61l44.12-22.69h280.13l-272.72,257.12Zm-618.96-7.56h610.23l256.68-242h-249.27l-44.12,22.69h-270.79l-44.12-22.69h-478.08L25.97,269.95h431.23l44.12,22.69Z"/>
      </g>
    </g>
  </g>
</svg>