<?xml version="1.0" encoding="UTF-8"?>
<svg id="Layer_2" data-name="Layer 2" xmlns="http://www.w3.org/2000/svg" viewBox="0 0 129.3 95.72">
  <defs>
    <style>
      .cls-1 {
        fill: #fff;
      }

      .cls-2 {
        fill: #223f99;
      }

      .cls-3 {
        opacity: .13;
      }

      .cls-4 {
        fill: #51c3ca;
      }
    </style>
  </defs>
  <g id="ABOUT_US" data-name="ABOUT US">
    <g>
      <path class="cls-2" d="m61.11,95.72h-15.14c-.37,0-.67-.3-.67-.67v-19.81c0-.37.3-.67.67-.67h15.14c.37,0,.67.3.67.67v19.81c0,.37-.3.67-.67.67Zm-14.47-1.34h13.8v-18.46h-13.8v18.46Z"/>
      <path class="cls-2" d="m75.92,95.72H31.06c-.37,0-.67-.3-.67-.67s.3-.67.67-.67h44.86c.37,0,.67.3.67.67s-.3.67-.67.67Z"/>
      <rect class="cls-1" x=".72" y=".67" width="105.64" height="76.25"/>
      <path class="cls-2" d="m106.36,77.59H.72c-.37,0-.67-.3-.67-.67V.67C.05.3.35,0,.72,0h105.64c.37,0,.67.3.67.67v76.25c0,.37-.3.67-.67.67Zm-104.97-1.34h104.3V1.34H1.39v74.91Z"/>
      <g>
        <rect class="cls-4" x="45.96" y="75.24" width="15.14" height="19.81"/>
        <rect class="cls-4" x=".67" y="67.27" width="105.64" height="9.65"/>
      </g>
      <path class="cls-2" d="m106.31,77.59H.67c-.37,0-.67-.3-.67-.67v-9.65c0-.37.3-.67.67-.67h105.64c.37,0,.67.3.67.67v9.65c0,.37-.3.67-.67.67Zm-104.97-1.34h104.3v-8.31H1.34v8.31Z"/>
      <ellipse class="cls-1" cx="106.42" cy="29.39" rx="7.18" ry="7.66"/>
      <path class="cls-1" d="m58.74,51.86c7.49,9.45,15.17,18.73,23.03,27.83.64.74,1.3,1.5,2.15,1.94,2.34,1.23,5.33-.6,6.15-3.24.82-2.64-.11-5.63-1.7-7.86-1.59-2.23-3.77-3.87-5.84-5.58-6.47-5.33-12.25-11.65-17.11-18.69-.67-.97-1.57-2.07-2.66-1.84-.7.14-1.18.8-1.61,1.41-1.3,1.86-2.52,4.71-2.41,6.05Z"/>
      <path class="cls-2" d="m85.52,82.7c-.67,0-1.32-.16-1.91-.47-.97-.51-1.7-1.36-2.34-2.1-7.83-9.06-15.58-18.43-23.04-27.85-.08-.1-.13-.23-.14-.36-.14-1.57,1.21-4.59,2.53-6.49.41-.59,1.03-1.48,2.03-1.68,1.65-.33,2.84,1.39,3.35,2.12,4.83,7.01,10.55,13.25,16.98,18.56.26.21.51.42.77.63,1.84,1.5,3.74,3.05,5.19,5.08,1.93,2.7,2.6,5.86,1.79,8.45-.51,1.65-1.81,3.08-3.38,3.74-.6.25-1.21.37-1.81.37Zm-26.11-31.08c7.41,9.34,15.11,18.64,22.87,27.63.56.65,1.2,1.39,1.95,1.79.76.4,1.68.42,2.58.04,1.22-.5,2.22-1.61,2.61-2.89.68-2.19.08-4.91-1.61-7.27-1.34-1.88-3.17-3.37-4.94-4.82-.26-.21-.52-.42-.78-.63-6.53-5.38-12.33-11.72-17.24-18.83-.51-.74-1.28-1.71-1.97-1.57-.44.09-.83.61-1.19,1.13-1.22,1.76-2.27,4.25-2.3,5.42Z"/>
      <path class="cls-1" d="m63.59,37.68l-8.96,4.63c-1.98,1.02-2.8,3.42-1.85,5.44l4.37,9.35c.96,2.05,3.39,2.96,5.46,2.02l9.45-4.26-8.47-17.18Z"/>
      <path class="cls-2" d="m60.92,60.16c-1.82,0-3.57-1.03-4.38-2.77l-4.37-9.35c-1.1-2.35-.15-5.13,2.15-6.32l8.96-4.63c.16-.08.35-.1.52-.04.17.06.31.18.39.34l8.47,17.18c.08.16.09.35.03.52-.06.17-.19.31-.36.39l-9.45,4.26c-.64.29-1.3.42-1.96.42Zm2.37-21.57l-8.35,4.31c-1.67.86-2.35,2.86-1.55,4.56l4.37,9.35c.8,1.71,2.86,2.47,4.58,1.7l8.82-3.98-7.86-15.94Z"/>
      <path class="cls-2" d="m71.51,55.78c-.26,0-.49-.15-.6-.38l-8.23-17.18c-.13-.28-.06-.61.17-.8l33.05-27.77c.16-.14.38-.19.58-.14.21.05.38.19.46.38l17.34,39.01c.09.19.08.41-.03.6-.1.18-.28.31-.49.34l-42.16,5.94s-.06,0-.09,0Zm-7.4-17.67l7.8,16.27,40.79-5.75-16.61-37.38-31.97,26.86Z"/>
      <path class="cls-2" d="m113.57,15.82c-.09,0-.19-.02-.28-.06-.34-.15-.49-.55-.34-.89l3.4-7.53c.15-.34.55-.49.89-.34.34.15.49.55.34.89l-3.4,7.53c-.11.25-.36.4-.61.4Z"/>
      <path class="cls-2" d="m119.46,22.65c-.23,0-.46-.12-.58-.34-.18-.32-.07-.73.25-.92,2.28-1.29,4.62-2.54,6.98-3.69.33-.16.74-.03.9.31.16.33.03.74-.31.9-2.33,1.14-4.65,2.37-6.91,3.65-.1.06-.22.09-.33.09Z"/>
      <path class="cls-2" d="m128.63,35.54c-.07,0-.14-.01-.21-.03l-8.09-2.62c-.35-.11-.55-.49-.43-.85.11-.35.49-.55.85-.43l8.08,2.62c.35.11.55.49.43.85-.09.28-.36.46-.64.46Z"/>
      <path class="cls-2" d="m53.94,47.12s-.05,0-.07-.01c-.12-.04-.18-.17-.14-.28l.94-2.83c.04-.12.16-.18.28-.14.12.04.18.17.14.28l-.94,2.83c-.03.09-.12.15-.21.15Z"/>
      <path class="cls-2" d="m55.51,50.48s-.04,0-.06,0c-.12-.03-.19-.16-.15-.28.75-2.63,1.61-5.28,2.56-7.86.04-.12.17-.17.29-.13.12.04.18.17.13.29-.94,2.57-1.8,5.2-2.55,7.82-.03.1-.12.16-.22.16Z"/>
      <path class="cls-2" d="m57.18,52.97s-.05,0-.08-.01c-.12-.04-.17-.17-.13-.29,1.48-3.99,2.85-8.08,4.08-12.15.04-.12.16-.18.28-.15.12.04.19.16.15.28-1.23,4.08-2.61,8.17-4.09,12.17-.03.09-.12.15-.21.15Z"/>
      <path class="cls-2" d="m59.08,57.15s-.04,0-.06,0c-.12-.03-.19-.15-.16-.27,1.25-4.78,2.66-9.58,4.18-14.29.04-.12.16-.18.28-.14.12.04.18.16.14.28-1.52,4.69-2.93,9.49-4.18,14.26-.03.1-.12.17-.22.17Z"/>
      <path class="cls-2" d="m61.83,58.24s-.04,0-.06,0c-.12-.03-.19-.15-.16-.27l3.12-12.01c.03-.12.15-.19.27-.16.12.03.19.15.16.27l-3.12,12.01c-.03.1-.12.17-.22.17Z"/>
      <path class="cls-2" d="m64.73,56.25s-.04,0-.06,0c-.12-.03-.19-.16-.15-.28.61-2.16,1.21-4.35,1.77-6.54.03-.12.15-.19.27-.16.12.03.19.15.16.27-.57,2.19-1.16,4.39-1.77,6.55-.03.1-.12.16-.22.16Z"/>
      <g class="cls-3">
        <path d="m111.4,47.3c-.14.04-.25.12-.36.22.13-.1.12-.11.03-.06,0,0-.02,0-.05.01-.09.02-.14.03-.19.04-1.33.18-2.68.18-4.01.32-5.69.64-11.38,1.3-17.1,1.69-2.61.14-5.22.39-7.81.71-2.64.18-4.84.38-6.34.7-4.35.74-10.3,2.98-11.55,3.61-2.23.94-2.42,1.02-4.24,1.76-.75.39-1.72.53-2.24,1.23-.17.21-.28.44-.34.66.18.1.66.41.73.45.1.06,1.06.52.77.42.69.26,1.38.49,2.06.77.54-.22,1.18-.46,1.89-.72.06-.21.2-.4.37-.52.39-.25.86-.05,1.1.29l1.36,1.93c.12.17.23.34.35.5.09-.01.17-.03.26-.05,1.67-.6,3.65-1.61,4.03-1.76,1.2-.59,3.41-.99,3.6-2.51-.26-.33-.5-.67-.73-1.03-.2-.32-.06-.73.24-.92.24-.15.54-.1.75.06,1.78-.55,3.58-1.04,5.4-1.44,2.42-.33,5.16-.71,6.58-.85,4.35-.25,8.27-.65,11.66-1.04,3.7-.51,10.27-1.08,12.16-1.45.67-.1,1.36-.15,2.02-.3-.12.02-.24.03-.36.05.17-.02.34-.05.51-.07.31,0,.62-.1.85-.3,1.33-.97.06-3.12-1.44-2.4Z"/>
      </g>
      <g class="cls-3">
        <path d="m113.88,29.7c-.21-.89-1.43-1.31-2.13-.7-.37.23-.47.67-.62,1.07-.29.63-.62,1.24-1.02,1.81-.01.01-.02.03-.04.04-.08.19-.73.51-1.75,1.01-.49.31-1.11.47-1.51.89.3.48.56,1,.79,1.53.19.44.38.89.56,1.33.23-.02.47-.09.7-.23,1.68-.83,3.28-1.97,4.14-3.68.44-.95,1.01-2,.86-3.08Z"/>
      </g>
      <path class="cls-2" d="m66.47,16.47h-15.05c-.37,0-.67-.3-.67-.67s.3-.67.67-.67h15.05c.37,0,.67.3.67.67s-.3.67-.67.67Z"/>
      <path class="cls-2" d="m37.9,45.4H11.33c-.37,0-.67-.3-.67-.67s.3-.67.67-.67h26.57c.37,0,.67.3.67.67s-.3.67-.67.67Z"/>
      <path class="cls-2" d="m37.9,55.51H11.33c-.37,0-.67-.3-.67-.67s.3-.67.67-.67h26.57c.37,0,.67.3.67.67s-.3.67-.67.67Z"/>
      <rect class="cls-1" x="11.33" y="11.57" width="30.43" height="22.82"/>
      <path class="cls-2" d="m41.76,35.07H11.33c-.37,0-.67-.3-.67-.67V11.57c0-.37.3-.67.67-.67h30.43c.37,0,.67.3.67.67v22.82c0,.37-.3.67-.67.67Zm-29.76-1.34h29.09V12.24H12v21.48Z"/>
    </g>
  </g>
</svg>