<?xml version="1.0" encoding="UTF-8"?>
<svg id="Layer_2" data-name="Layer 2" xmlns="http://www.w3.org/2000/svg" viewBox="0 0 838 100.4">
  <defs>
    <style>
      .cls-1 {
        fill: #ec008c;
      }
    </style>
  </defs>
  <g id="PAGINA_PRINCIPALA" data-name="PAGINA PRINCIPALA">
    <g>
      <path class="cls-1" d="m0,100.4V0h89.63v17.54H17.4v65.32h72.37v17.54H0Zm30.24-43.64v-14.78h55.66v14.78H30.24Z"/>
      <path class="cls-1" d="m205.77,100.4l-42.12-41.02-41.71,41.02h-22.79l53.86-52.2L103.02,0h24.17l38.25,37.15L203.15,0h22.79l-49.99,48.2,54.41,52.2h-24.58Z"/>
      <path class="cls-1" d="m275.1,100.4V17.54h-38.12V0h93.77v17.54h-38.12v82.86h-17.54Z"/>
      <path class="cls-1" d="m435.57,100.4l-25.41-27.9h-37.56v-15.47h41.85c6.35,0,11.14-1.73,14.36-5.18,3.22-3.45,4.83-8.45,4.83-14.98s-1.68-11.39-5.04-14.57c-3.36-3.18-8.08-4.76-14.16-4.76h-54.69v82.86h-17.4V0h72.09c5.71,0,10.82.85,15.33,2.55,4.51,1.7,8.33,4.14,11.46,7.32,3.13,3.18,5.52,7.02,7.18,11.53,1.66,4.51,2.49,9.58,2.49,15.19,0,8.38-1.82,15.4-5.46,21.06-3.64,5.66-8.72,9.74-15.26,12.22l30.24,30.52h-24.86Z"/>
      <path class="cls-1" d="m513.05,100.4c-7,0-13.46-1.31-19.4-3.94-5.94-2.62-11.1-6.21-15.47-10.77-4.37-4.56-7.78-9.96-10.22-16.23-2.44-6.26-3.66-13.03-3.66-20.3s1.22-14.09,3.66-20.16c2.44-6.08,5.85-11.26,10.22-15.54,4.37-4.28,9.53-7.6,15.47-9.94,5.94-2.35,12.41-3.52,19.4-3.52h24.44c7.27,0,13.92,1.2,19.96,3.59,6.03,2.4,11.21,5.76,15.54,10.08,4.33,4.33,7.69,9.51,10.08,15.54,2.39,6.03,3.59,12.68,3.59,19.96s-1.22,14.04-3.66,20.3c-2.44,6.26-5.85,11.67-10.22,16.23-4.37,4.56-9.55,8.15-15.54,10.77-5.99,2.62-12.57,3.94-19.75,3.94h-24.44Zm24.44-17.54c4.6,0,8.84-.83,12.71-2.49,3.87-1.66,7.2-3.94,10.01-6.84,2.81-2.9,4.99-6.37,6.56-10.43,1.56-4.05,2.35-8.42,2.35-13.12s-.78-9.05-2.35-13.05c-1.57-4.01-3.75-7.43-6.56-10.29-2.81-2.85-6.15-5.09-10.01-6.7-3.87-1.61-8.1-2.42-12.71-2.42h-24.44c-4.51,0-8.68.81-12.5,2.42-3.82,1.61-7.11,3.85-9.87,6.7-2.76,2.85-4.93,6.26-6.49,10.22-1.57,3.96-2.35,8.33-2.35,13.12s.78,9.07,2.35,13.12c1.56,4.05,3.73,7.53,6.49,10.43,2.76,2.9,6.05,5.18,9.87,6.84,3.82,1.66,7.99,2.49,12.5,2.49h24.44Z"/>
      <path class="cls-1" d="m631.12,72.5v-16.99h40.33c6.17,0,10.98-1.75,14.43-5.25,3.45-3.5,5.18-8.1,5.18-13.81s-1.73-10.4-5.18-13.81c-3.45-3.41-8.26-5.11-14.43-5.11h-53.17v82.86h-17.4V0h70.57c5.8,0,10.98.85,15.54,2.55,4.56,1.7,8.4,4.1,11.53,7.18,3.13,3.09,5.52,6.84,7.18,11.26,1.66,4.42,2.49,9.39,2.49,14.91s-.83,10.38-2.49,14.85c-1.66,4.47-4.05,8.31-7.18,11.53-3.13,3.22-6.97,5.73-11.53,7.53-4.56,1.8-9.74,2.69-15.54,2.69h-40.33Z"/>
      <path class="cls-1" d="m767.02,100.4v-38.12L713.71,0h23.62l39.08,46.26L815.63,0h22.37l-53.45,62.28v38.12h-17.54Z"/>
    </g>
  </g>
</svg>