<?xml version="1.0" encoding="UTF-8"?>
<svg id="Layer_2" data-name="Layer 2" xmlns="http://www.w3.org/2000/svg" viewBox="0 0 304.2 14.29">
  <defs>
    <style>
      .cls-1 {
        fill: #fff;
      }
    </style>
  </defs>
  <g id="PAGINA_PRINCIPALA" data-name="PAGINA PRINCIPALA">
    <g>
      <path class="cls-1" d="m6.13,1.02V0h2.04v8.17h2.04v2.04h-2.04v4.08h-2.04v-4.08H0v-4.08h1.02v-1.02h1.02v-1.02h1.02v-1.02h1.02v-1.02h1.02v-1.02h1.02Zm0,7.15v-4.08h-1.02v1.02h-1.02v1.02h-1.02v1.02h-1.02v1.02h4.08Z"/>
      <path class="cls-1" d="m20.42,13.27v1.02h-6.13v-1.02h-1.02v-1.02h-1.02V2.04h1.02v-1.02h1.02V0h6.13v1.02h1.02v1.02h1.02v2.04h-2.04v-1.02h-1.02v-1.02h-4.08v1.02h-1.02v3.06h6.13v1.02h1.02v1.02h1.02v4.08h-1.02v1.02h-1.02Zm-5.1-1.02h4.08v-1.02h1.02v-2.04h-1.02v-1.02h-5.1v3.06h1.02v1.02Z"/>
      <path class="cls-1" d="m26.54,1.02V0h4.08v1.02h1.02v1.02h1.02v4.08h-1.02v1.02h-1.02v1.02h-4.08v-1.02h-1.02v-1.02h-1.02V2.04h1.02v-1.02h1.02Zm1.02,1.02v1.02h-1.02v2.04h1.02v1.02h2.04v-1.02h1.02v-2.04h-1.02v-1.02h-2.04Z"/>
      <path class="cls-1" d="m37.77,12.25h-1.02v-2.04h2.04v1.02h1.02v1.02h4.08v-1.02h1.02v-2.04h-1.02v-1.02h-3.06v-2.04h3.06v-1.02h1.02v-2.04h-1.02v-1.02h-4.08v1.02h-1.02v1.02h-2.04v-2.04h1.02v-1.02h1.02V0h6.13v1.02h1.02v1.02h1.02v4.08h-1.02v2.04h1.02v4.08h-1.02v1.02h-1.02v1.02h-6.13v-1.02h-1.02v-1.02Z"/>
      <path class="cls-1" d="m51.04,12.25h8.17v2.04h-10.21v-6.13h1.02v-1.02h1.02v-1.02h5.1v-1.02h1.02v-2.04h-1.02v-1.02h-4.08v1.02h-1.02v1.02h-2.04v-2.04h1.02v-1.02h1.02V0h6.13v1.02h1.02v1.02h1.02v4.08h-1.02v1.02h-1.02v1.02h-5.1v1.02h-1.02v3.06Z"/>
      <path class="cls-1" d="m67.37,0v3.06h-1.02v1.02h-1.02v-1.02h-1.02V0h3.06Z"/>
      <path class="cls-1" d="m74.52,12.25h-1.02v-2.04h2.04v1.02h1.02v1.02h4.08v-1.02h1.02v-2.04h-1.02v-1.02h-3.06v-2.04h3.06v-1.02h1.02v-2.04h-1.02v-1.02h-4.08v1.02h-1.02v1.02h-2.04v-2.04h1.02v-1.02h1.02V0h6.13v1.02h1.02v1.02h1.02v4.08h-1.02v2.04h1.02v4.08h-1.02v1.02h-1.02v1.02h-6.13v-1.02h-1.02v-1.02Z"/>
      <path class="cls-1" d="m85.75,0h10.21v2.04h-8.17v2.04h6.13v1.02h1.02v1.02h1.02v6.13h-1.02v1.02h-1.02v1.02h-6.13v-1.02h-1.02v-1.02h-1.02v-2.04h2.04v1.02h1.02v1.02h4.08v-1.02h1.02v-4.08h-1.02v-1.02h-7.15V0Z"/>
      <path class="cls-1" d="m103.1,12.25v2.04h-2.04v-2.04h2.04Z"/>
      <path class="cls-1" d="m112.29,1.02V0h6.13v1.02h1.02v1.02h1.02v10.21h-1.02v1.02h-1.02v1.02h-6.13v-1.02h-1.02v-1.02h-1.02V2.04h1.02v-1.02h1.02Zm1.02,7.15v-1.02h1.02v-1.02h1.02v-1.02h1.02v-1.02h2.04v-1.02h-1.02v-1.02h-4.08v1.02h-1.02v5.1h1.02Zm-1.02,2.04v1.02h1.02v1.02h4.08v-1.02h1.02v-5.1h-1.02v1.02h-1.02v1.02h-1.02v1.02h-1.02v1.02h-2.04Z"/>
      <path class="cls-1" d="m126.58,0v3.06h-1.02v1.02h-1.02v-1.02h-1.02V0h3.06Zm4.08,3.06v1.02h-1.02v-1.02h-1.02V0h3.06v3.06h-1.02Z"/>
      <path class="cls-1" d="m136.79,6.13v8.17h-2.04V0h2.04v3.06h1.02v1.02h1.02v1.02h1.02v1.02h1.02v1.02h1.02v1.02h1.02V0h2.04v14.29h-2.04v-3.06h-1.02v-1.02h-1.02v-1.02h-1.02v-1.02h-1.02v-1.02h-1.02v-1.02h-1.02Z"/>
      <path class="cls-1" d="m161.29,12.25h8.17v2.04h-10.21v-6.13h1.02v-1.02h1.02v-1.02h5.1v-1.02h1.02v-2.04h-1.02v-1.02h-4.08v1.02h-1.02v1.02h-2.04v-2.04h1.02v-1.02h1.02V0h6.13v1.02h1.02v1.02h1.02v4.08h-1.02v1.02h-1.02v1.02h-5.1v1.02h-1.02v3.06Z"/>
      <path class="cls-1" d="m172.52,12.25h-1.02v-2.04h2.04v1.02h1.02v1.02h4.08v-1.02h1.02v-2.04h-1.02v-1.02h-3.06v-2.04h3.06v-1.02h1.02v-2.04h-1.02v-1.02h-4.08v1.02h-1.02v1.02h-2.04v-2.04h1.02v-1.02h1.02V0h6.13v1.02h1.02v1.02h1.02v4.08h-1.02v2.04h1.02v4.08h-1.02v1.02h-1.02v1.02h-6.13v-1.02h-1.02v-1.02Z"/>
      <path class="cls-1" d="m185.79,1.02V0h4.08v1.02h1.02v1.02h1.02v4.08h-1.02v1.02h-1.02v1.02h-4.08v-1.02h-1.02v-1.02h-1.02V2.04h1.02v-1.02h1.02Zm1.02,1.02v1.02h-1.02v2.04h1.02v1.02h2.04v-1.02h1.02v-2.04h-1.02v-1.02h-2.04Z"/>
      <path class="cls-1" d="m196,0h10.21v2.04h-8.17v2.04h6.13v1.02h1.02v1.02h1.02v6.13h-1.02v1.02h-1.02v1.02h-6.13v-1.02h-1.02v-1.02h-1.02v-2.04h2.04v1.02h1.02v1.02h4.08v-1.02h1.02v-4.08h-1.02v-1.02h-7.15V0Z"/>
      <path class="cls-1" d="m209.27,12.25h-1.02v-2.04h2.04v1.02h1.02v1.02h4.08v-1.02h1.02v-2.04h-1.02v-1.02h-3.06v-2.04h3.06v-1.02h1.02v-2.04h-1.02v-1.02h-4.08v1.02h-1.02v1.02h-2.04v-2.04h1.02v-1.02h1.02V0h6.13v1.02h1.02v1.02h1.02v4.08h-1.02v2.04h1.02v4.08h-1.02v1.02h-1.02v1.02h-6.13v-1.02h-1.02v-1.02Z"/>
      <path class="cls-1" d="m226.62,0v3.06h-1.02v1.02h-1.02v-1.02h-1.02V0h3.06Z"/>
      <path class="cls-1" d="m234.79,12.25h8.17v2.04h-10.21v-6.13h1.02v-1.02h1.02v-1.02h5.1v-1.02h1.02v-2.04h-1.02v-1.02h-4.08v1.02h-1.02v1.02h-2.04v-2.04h1.02v-1.02h1.02V0h6.13v1.02h1.02v1.02h1.02v4.08h-1.02v1.02h-1.02v1.02h-5.1v1.02h-1.02v3.06Z"/>
      <path class="cls-1" d="m251.12,12.25h2.04v2.04h-6.13v-2.04h2.04V4.08h-2.04v-2.04h1.02v-1.02h1.02V0h2.04v12.25Z"/>
      <path class="cls-1" d="m262.35,12.25v2.04h-2.04v-2.04h2.04Z"/>
      <path class="cls-1" d="m271.54,1.02V0h6.13v1.02h1.02v1.02h1.02v10.21h-1.02v1.02h-1.02v1.02h-6.13v-1.02h-1.02v-1.02h-1.02V2.04h1.02v-1.02h1.02Zm1.02,7.15v-1.02h1.02v-1.02h1.02v-1.02h1.02v-1.02h2.04v-1.02h-1.02v-1.02h-4.08v1.02h-1.02v5.1h1.02Zm-1.02,2.04v1.02h1.02v1.02h4.08v-1.02h1.02v-5.1h-1.02v1.02h-1.02v1.02h-1.02v1.02h-1.02v1.02h-2.04Z"/>
      <path class="cls-1" d="m285.83,0v3.06h-1.02v1.02h-1.02v-1.02h-1.02V0h3.06Zm4.08,3.06v1.02h-1.02v-1.02h-1.02V0h3.06v3.06h-1.02Z"/>
      <path class="cls-1" d="m304.2,0v2.04h-8.17v4.08h6.13v2.04h-6.13v4.08h8.17v2.04h-10.21V0h10.21Z"/>
    </g>
  </g>
</svg>