<?xml version="1.0" encoding="UTF-8"?>
<svg id="Layer_2" data-name="Layer 2" xmlns="http://www.w3.org/2000/svg" viewBox="0 0 203.82 18.67">
  <defs>
    <style>
      .cls-1 {
        fill: #ec008c;
      }
    </style>
  </defs>
  <g id="PAGINA_PRINCIPALA" data-name="PAGINA PRINCIPALA">
    <g>
      <path class="cls-1" d="m23.59,18.42l-3.47-12.77-5.15,11.82c-.35.77-.85,1.2-1.62,1.2s-1.3-.42-1.62-1.2L6.6,5.65l-3.47,12.77H0L4.67,1.32C4.9.45,5.4.02,6.25.02c.67,0,1.3.38,1.6,1.07l5.6,12.85L19.05,1.1c.3-.7.85-1.07,1.52-1.07.77,0,1.27.42,1.52,1.3l4.65,17.1h-3.15Z"/>
      <path class="cls-1" d="m33.82,18.42v-6.9L24.18.25h4.27l7.07,8.37L42.62.25h4.05l-9.67,11.27v6.9h-3.17Z"/>
      <path class="cls-1" d="m74.87,18.42l-2.72-4.57h-8.6l1.5-2.57h5.57l-4.05-6.8-8.25,13.95h-3.62L65.15,1.02c.38-.62.85-1.02,1.55-1.02s1.15.4,1.52,1.02l10.47,17.4h-3.82Z"/>
      <path class="cls-1" d="m86.52,18.42c-5.07,0-8.82-4-8.82-9.27S81.45.25,86.52.25h9.85v3.17h-9.85c-3.25,0-5.65,2.42-5.65,5.87s2.37,5.95,5.65,5.95h9.85v3.17h-9.85Z"/>
      <path class="cls-1" d="m107.25,18.42c-5.07,0-8.82-4-8.82-9.27S102.17.25,107.25.25h9.85v3.17h-9.85c-3.25,0-5.65,2.42-5.65,5.87s2.37,5.95,5.65,5.95h9.85v3.17h-9.85Z"/>
      <path class="cls-1" d="m127.97,18.42c-5.07,0-8.82-4-8.82-9.27S122.9.25,127.97.25h4.42c5.25,0,8.9,3.62,8.9,8.9s-3.72,9.27-8.9,9.27h-4.42Zm4.42-3.17c3.35,0,5.72-2.52,5.72-5.95s-2.37-5.87-5.72-5.87h-4.42c-3.25,0-5.65,2.42-5.65,5.87s2.37,5.95,5.65,5.95h4.42Z"/>
      <path class="cls-1" d="m160.12.25h3.1v10.15c0,5.62-2.77,8.27-9.82,8.27s-9.8-2.65-9.8-8.27V.25h3.27v10.15c0,3.65,1.62,5.15,6.62,5.15s6.62-1.5,6.62-5.15V.25Z"/>
      <path class="cls-1" d="m169.05,5.12v13.3h-3.02V1.92c0-1.17.62-1.9,1.62-1.9.48,0,.88.17,1.35.65l12.82,12.72V.1h3.02v16.65c0,1.2-.65,1.9-1.57,1.9-.52,0-1-.23-1.45-.67l-12.77-12.85Z"/>
      <path class="cls-1" d="m193.75,18.42V3.42h-6.9V.25h16.97v3.17h-6.9v15h-3.17Z"/>
    </g>
  </g>
</svg>