<?xml version="1.0" encoding="UTF-8"?>
<svg id="Layer_2" data-name="Layer 2" xmlns="http://www.w3.org/2000/svg" viewBox="0 0 484.49 56.02">
  <defs>
    <style>
      .cls-1 {
        fill: #ec008c;
      }
    </style>
  </defs>
  <g id="ABOUT_US" data-name="ABOUT US">
    <g>
      <path class="cls-1" d="m60.52,55.27l-8.17-13.72h-25.8l4.5-7.72h16.72l-12.15-20.4L10.87,55.27H0L31.35,3.07c1.12-1.88,2.55-3.07,4.65-3.07s3.45,1.2,4.58,3.07l31.42,52.2h-11.47Z"/>
      <path class="cls-1" d="m77.77,55.27V.75h39.9c10.65,0,17.7,4.8,17.7,14.1,0,6.9-3.52,10.35-7.57,11.62,4.95,1.58,8.55,5.92,8.55,12.3,0,9.97-6.9,16.5-17.55,16.5h-41.02Zm16.42-23.7v-8.02h23.55c5.4,0,7.95-1.88,7.95-6.6,0-5.78-4.57-6.67-11.62-6.67h-26.77v35.55h27.6c6.82,0,11.77-1.88,11.77-7.2,0-4.5-2.92-7.05-8.25-7.05h-24.22Z"/>
      <path class="cls-1" d="m169.57,55.27c-15.22,0-26.47-12-26.47-27.82S154.35.75,169.57.75h13.27c15.75,0,26.7,10.87,26.7,26.7s-11.17,27.82-26.7,27.82h-13.27Zm13.27-9.52c10.05,0,17.17-7.58,17.17-17.85s-7.12-17.62-17.17-17.62h-13.27c-9.75,0-16.95,7.27-16.95,17.62s7.12,17.85,16.95,17.85h13.27Z"/>
      <path class="cls-1" d="m266.02.75h9.3v30.45c0,16.87-8.32,24.82-29.47,24.82s-29.4-7.95-29.4-24.82V.75h9.82v30.45c0,10.95,4.87,15.45,19.87,15.45s19.87-4.5,19.87-15.45V.75Z"/>
      <path class="cls-1" d="m301.42,55.27V10.27h-20.7V.75h50.92v9.52h-20.7v45h-9.52Z"/>
      <path class="cls-1" d="m408.74.75h9.3v30.45c0,16.87-8.32,24.82-29.47,24.82s-29.4-7.95-29.4-24.82V.75h9.82v30.45c0,10.95,4.87,15.45,19.87,15.45s19.87-4.5,19.87-15.45V.75Z"/>
      <path class="cls-1" d="m426.67,55.27v-9.52h40.87c5.1,0,7.95-2.85,7.95-7.12,0-4.65-2.85-7.05-7.95-7.05h-25.05c-10.27,0-16.65-6.52-16.65-15.52s5.92-15.3,16.8-15.3h39.15v9.52h-39.15c-4.35,0-6.9,2.55-6.9,6.67s2.62,6.6,6.82,6.6h24.97c11.02,0,16.95,5.17,16.95,15.75,0,9.15-5.55,15.97-16.95,15.97h-40.87Z"/>
    </g>
  </g>
</svg>