<?xml version="1.0" encoding="UTF-8"?>
<svg id="Layer_2" data-name="Layer 2" xmlns="http://www.w3.org/2000/svg" viewBox="0 0 846.88 197.16">
  <defs>
    <style>
      .cls-1 {
        stroke-width: 3.79px;
      }

      .cls-1, .cls-2 {
        fill: none;
        stroke: #fff;
        stroke-miterlimit: 10;
      }

      .cls-2 {
        stroke-width: 1.76px;
      }
    </style>
  </defs>
  <g id="ACTIVITATI">
    <g>
      <g>
        <ellipse class="cls-2" cx="38.42" cy="166.78" rx="37.54" ry="29.5"/>
        <ellipse class="cls-2" cx="37.84" cy="166.33" rx="31.17" ry="24.49"/>
      </g>
      <line class="cls-1" x1="38.65" y1="167.16" x2="190.96" y2="49.97"/>
      <line class="cls-1" x1="188.83" y1="49.97" x2="323.43" y2="49.97"/>
      <line class="cls-1" x1="321.29" y1="49.97" x2="381.11" y2="2.96"/>
      <line class="cls-1" x1="378.97" y1="2.96" x2="846.88" y2="3.8"/>
      <line class="cls-1" x1="203.78" y1="39.9" x2="208.31" y2="44.83"/>
      <line class="cls-1" x1="366.15" y1="1.28" x2="370.68" y2="6.21"/>
      <line class="cls-1" x1="208.02" y1="33.2" x2="216.64" y2="44.92"/>
      <line class="cls-1" x1="214.65" y1="28.06" x2="227.1" y2="45.02"/>
      <line class="cls-1" x1="221.27" y1="22.92" x2="237.57" y2="45.12"/>
      <line class="cls-1" x1="228.41" y1="18.5" x2="247.52" y2="44.51"/>
      <line class="cls-1" x1="233.72" y1="13.02" x2="257.17" y2="44.95"/>
      <line class="cls-1" x1="238.54" y1="6.05" x2="267.3" y2="45.2"/>
      <line class="cls-1" x1="247.75" y1="2.37" x2="279.46" y2="45.53"/>
      <line class="cls-1" x1="259.21" y1="1.97" x2="291.5" y2="45.93"/>
      <line class="cls-1" x1="270.65" y1="1.55" x2="303.56" y2="46.35"/>
      <line class="cls-1" x1="284.52" y1="2.14" x2="315.33" y2="44.08"/>
      <line class="cls-1" x1="297.45" y1="3.75" x2="325.9" y2="42.47"/>
      <line class="cls-1" x1="307.48" y1="2.41" x2="332.96" y2="37.09"/>
      <line class="cls-1" x1="318.4" y1="2.28" x2="339.14" y2="30.51"/>
      <line class="cls-1" x1="328.87" y1="2.38" x2="345.76" y2="25.37"/>
      <line class="cls-1" x1="337.52" y1="2.31" x2="352.05" y2="22.08"/>
      <line class="cls-1" x1="347.23" y1="4.5" x2="357.31" y2="18.21"/>
      <line class="cls-1" x1="356.32" y1="2.5" x2="363.16" y2="11.81"/>
    </g>
  </g>
</svg>