<?xml version="1.0" encoding="UTF-8"?>
<svg id="Layer_2" data-name="Layer 2" xmlns="http://www.w3.org/2000/svg" viewBox="0 0 540.68 112.42">
  <defs>
    <style>
      .cls-1 {
        fill: #a8eaeb;
      }

      .cls-2 {
        fill: #1b1464;
      }
    </style>
  </defs>
  <g id="ABOUT_US" data-name="ABOUT US">
    <g>
      <polygon class="cls-1" points="540.68 16.51 540.68 62.89 120.07 62.89 123.96 60.54 536.79 60.54 536.79 18.86 123.96 18.86 120.07 16.51 540.68 16.51"/>
      <g>
        <path class="cls-1" d="m102.03,13.36l-43.54,26.34,43.54,26.34,9.09-5.5,34.45-20.84-43.54-26.34Zm0,44.02l-29.25-17.69,29.25-17.69,29.24,17.69-29.24,17.69Z"/>
        <path class="cls-1" d="m50.19,39.7l25.92-15.68-2.27-1.37-21.77,13.17-6.42,3.88,6.42,3.88,32.25,19.51,2.26-1.37-36.38-22.02Z"/>
      </g>
      <path class="cls-2" d="m164.9,0l-22.08,13.36h151.07l9.1-5.5h54.59l12.99-7.86h-205.67Zm191.07,5.51h-54.59l-9.1,5.5h-140.07l14.31-8.65h194.66l-5.21,3.15Z"/>
      <path class="cls-1" d="m453.62,11h-147.18l-12.99,7.86h173.16l-12.99-7.86Z"/>
      <polygon class="cls-2" points="234.09 66.04 221.11 73.9 175.61 73.9 157.42 84.91 79.13 84.91 99.76 72.43 110.31 66.04 234.09 66.04"/>
      <polygon class="cls-1" points="166.91 84.91 177.31 78.62 229.31 78.62 250.1 66.04 416.48 66.04 406.09 72.33 250.1 72.33 229.31 84.91 166.91 84.91"/>
      <path class="cls-1" d="m86.57,61.72l-2.26,1.37-56.42,34.12-1.39.84c-.78-.64-1.7-1.19-2.75-1.66l57.31-34.67-36.4-22.02,28.68-17.34,2.75,1.66-25.92,15.68,36.38,22.02Z"/>
      <path class="cls-1" d="m27.9,97.21c-.8-.62-1.72-1.18-2.75-1.66-2.65-1.24-5.96-1.98-9.56-1.98-8.61,0-15.6,4.23-15.6,9.43s6.99,9.44,15.6,9.44,15.59-4.23,15.59-9.44c0-2.17-1.23-4.18-3.28-5.78Zm-12.3,14.04c-7.55,0-13.65-3.69-13.65-8.26s6.11-8.25,13.65-8.25c3.07,0,5.9.61,8.17,1.65,1.05.47,1.97,1.03,2.75,1.66,1.71,1.37,2.72,3.08,2.72,4.94,0,4.56-6.11,8.26-13.64,8.26Z"/>
      <path class="cls-2" d="m15.6,99.5c-3.19,0-5.77,1.56-5.77,3.48s2.58,3.49,5.77,3.49,5.76-1.56,5.76-3.49-2.58-3.48-5.76-3.48Z"/>
      <path class="cls-2" d="m102.03,29.77l-16.41,9.93,16.41,9.92,16.4-9.92-16.4-9.93Z"/>
    </g>
  </g>
</svg>