<?xml version="1.0" encoding="UTF-8"?>
<svg id="Layer_2" data-name="Layer 2" xmlns="http://www.w3.org/2000/svg" viewBox="0 0 472.71 54.54">
  <defs>
    <style>
      .cls-1 {
        fill: #f9f7f7;
      }
    </style>
  </defs>
  <g id="PAGINA_PRINCIPALA" data-name="PAGINA PRINCIPALA">
    <g>
      <path class="cls-1" d="m50.64,54.54l-13.8-15.15h-20.41v-8.4h22.73c6.83,0,10.43-3.9,10.43-10.95s-3.9-10.5-10.43-10.5H9.45v45.01H0V0h39.16c12.45,0,19.81,7.73,19.81,19.88,0,9-4.2,15.38-11.25,18.08l16.43,16.58h-13.5Z"/>
      <path class="cls-1" d="m92.73,54.54c-15.23,0-26.48-12-26.48-27.83S77.5,0,92.73,0h13.28c15.75,0,26.71,10.88,26.71,26.71s-11.18,27.83-26.71,27.83h-13.28Zm13.28-9.53c10.05,0,17.18-7.58,17.18-17.86s-7.13-17.63-17.18-17.63h-13.28c-9.75,0-16.95,7.28-16.95,17.63s7.13,17.86,16.95,17.86h13.28Z"/>
      <path class="cls-1" d="m140.36,54.54V0h39.91c10.65,0,17.71,4.8,17.71,14.1,0,6.9-3.53,10.35-7.58,11.63,4.95,1.58,8.55,5.93,8.55,12.3,0,9.98-6.9,16.5-17.56,16.5h-41.04Zm16.43-23.71v-8.03h23.56c5.4,0,7.95-1.88,7.95-6.6,0-5.78-4.58-6.68-11.63-6.68h-26.78v35.56h27.61c6.83,0,11.78-1.88,11.78-7.2,0-4.5-2.93-7.05-8.25-7.05h-24.23Z"/>
      <path class="cls-1" d="m232.19,54.54c-15.23,0-26.48-12-26.48-27.83S216.96,0,232.19,0h13.28c15.75,0,26.71,10.88,26.71,26.71s-11.18,27.83-26.71,27.83h-13.28Zm13.28-9.53c10.05,0,17.18-7.58,17.18-17.86s-7.13-17.63-17.18-17.63h-13.28c-9.75,0-16.95,7.28-16.95,17.63s7.13,17.86,16.95,17.86h13.28Z"/>
      <path class="cls-1" d="m296.11,54.54V9.53h-20.71V0h50.94v9.53h-20.71v45.01h-9.53Z"/>
      <path class="cls-1" d="m333.17,54.54V0h9.53v54.54h-9.53Z"/>
      <path class="cls-1" d="m377.58,54.54c-15.23,0-26.48-12-26.48-27.83S362.35,0,377.58,0h29.56v9.53h-29.56c-9.75,0-16.95,7.28-16.95,17.63s7.13,17.86,16.95,17.86h29.56v9.53h-29.56Z"/>
      <path class="cls-1" d="m414.87,54.54v-9.53h40.89c5.1,0,7.95-2.85,7.95-7.13,0-4.65-2.85-7.05-7.95-7.05h-25.06c-10.28,0-16.65-6.53-16.65-15.53s5.93-15.3,16.81-15.3h39.16v9.53h-39.16c-4.35,0-6.9,2.55-6.9,6.68s2.63,6.6,6.83,6.6h24.98c11.03,0,16.96,5.18,16.96,15.75,0,9.15-5.55,15.98-16.96,15.98h-40.89Z"/>
    </g>
  </g>
</svg>